<?xml version="1.0" encoding="utf-8"?>
<svg version="1.1" xmlns="http://www.w3.org/2000/svg" xmlns:xlink="http://www.w3.org/1999/xlink" height="493" width="770.1392198182139">
  <defs>
    <path id="path-1" opacity="1" fill-rule="evenodd" d="M8,0 L350,0 C354.415320195952,0 358,3.584679804048 358,8 L358,485 C358,489.415320195952 354.415320195952,493 350,493 L8,493 C3.584679804048001,493 8.881784197001252e-16,489.415320195952 0,485 L0,8 C0,3.584679804048001 3.5846798040479984,8.881784197001252e-16 8,0Z"/>
    <!-- <image id="f29e69cd-7103-42a6-9dc7-88227132c2b0" opacity="1" x="0" y="0" width="1024" height="576" xlink:href="assets/images/000054.jpg"> -->
    <pattern id="pattern-2" x="-0.7240844196151459" y="0" width="1.724084419615146" height="1" patternUnits="objectBoundingBox">
      <use xlink:href="#f29e69cd-7103-42a6-9dc7-88227132c2b0" transform="scale(0.8559027777777778,0.8559027777777778)"/>
    </pattern>
    <path id="path-3" opacity="1" fill-rule="evenodd" d="M268,112 C268,157.808947033002 228.344479667719,197 179.5,197 C130.65552033228101,197 91.00000000000001,157.808947033002 91,112.00000000000001 C91,66.191052966998 130.655520332281,29.000000000000014 179.5,29 C228.344479667719,29 268,66.191052966998 268,112Z"/>
    <image id="53cfa266-716c-430d-91ad-1d0676c14e93" opacity="1" x="0" y="0" width="2244" height="2296" xlink:href="face1.jpg">


    <pattern id="pattern-4" x="0" y="-0.03899286987522277" width="1" height="1.0389928698752229" patternUnits="objectBoundingBox">
      <use xlink:href="#53cfa266-716c-430d-91ad-1d0676c14e93" transform="scale(0.07887700534759358,0.07887700534759358)"/>
    </pattern>
    <path id="path-5" opacity="1" fill-rule="evenodd" d="M8,225 L350,225 C354.415320195952,225 358,228.584679804048 358,233 L358,261 C358,265.415320195952 354.415320195952,269 350,269 L8,269 C3.584679804048001,269 8.881784197001252e-16,265.415320195952 0,261 L0,233 C0,228.584679804048 3.5846798040479984,225 8,225Z"/>
    <linearGradient id="linearGradient-6" x1="0.94" y1="0.12" x2="0" y2="1.12">
      <stop offset="0" stop-color="rgb(28,28,28)" stop-opacity="0.76"/>
      <stop offset="1" stop-color="rgb(57,159,242)" stop-opacity="0.24"/>
    </linearGradient>
    <path id="path-7" opacity="1" fill-rule="evenodd" d="M36.1875,396.4666748046875 L41.29375076293945,396.4666748046875 L44,398.6028137207031 L44,428.8638610839844 C44,430.04168701171875 42.78593826293945,431 41.29296875,431 L21.706249237060547,431 C20.214061737060547,431 19,430.04168701171875 19,428.8638610839844 L19,398.6028137207031 C19,397.4249572753906 20.214061737060547,396.4666748046875 21.706249237060547,396.4666748046875 L26.8125,396.4666748046875 L26.8125,394 L36.1875,394 L36.1875,396.4666748046875 L41.29375076293945,429.76666259765625 C41.924217224121094,429.76666259765625 42.4375,429.3621520996094 42.4375,428.8638916015625 L42.4375,398.6028137207031 C42.4375,398.10455322265625 41.924217224121094,397.70001220703125 41.29375076293945,397.70001220703125 L21.706249237060547,397.70001220703125 C21.075780868530273,397.70001220703125 20.5625,398.10455322265625 20.5625,398.6028137207031 L20.5625,428.8638916015625 C20.5625,429.3621520996094 21.075780868530273,429.76666259765625 21.706249237060547,429.76666259765625 L41.29375076293945,429.76666259765625 L36.1875,396.4666748046875Z"/>
    <path id="path-8" opacity="1" fill-rule="evenodd" d="M36.96874999999992,411.8833333333331 L34.62499999999993,411.8833333333331 L34.62499999999993,404.5499333333331 C34.63515624999992,404.38959999999975 34.571093749999925,404.23234999999977 34.440624999999926,404.1059333333331 C34.14296874999993,403.81794999999977 33.45312499999993,403.82041666666646 33.15781249999993,404.1083999999998 C33.137499999999925,404.1281333333331 33.118749999999935,404.14909999999975 33.10156249999993,404.17191666666645 L25.367187499999943,414.02563333333313 C25.217968749999944,414.2161833333331 25.210937499999943,414.4548333333331 25.34921874999994,414.65031666666647 C25.48671874999994,414.84579999999977 25.74765624999994,414.96666666666647 26.031249999999943,414.96666666666647 L29.156249999999936,414.96666666666647 L29.158593749999937,422.93954999999977 C29.159374999999937,423.08446666666646 29.218749999999936,423.2349333333331 29.326562499999937,423.34469999999976 C29.474218749999935,423.49701666666647 29.739843749999935,423.5999999999998 29.982812499999934,423.5999999999998 C30.221093749999934,423.5999999999998 30.479687499999933,423.5013333333331 30.627343749999934,423.35456666666647 C30.65859374999993,423.3237333333331 30.685156249999935,423.29104999999976 30.708593749999935,423.25651666666647 L37.66093749999992,412.7861333333331 C37.78828124999991,412.59496666666644 37.77890624999992,412.36556666666644 37.63749999999992,412.1811833333331 "/>
    <rect id="rect-9" opacity="1" x="14.000000000000057" y="296" width="38.14100000000001" height="32.06297728999999"/>
    <path id="path-10" opacity="1" fill-rule="evenodd" d="M15.022953276467026,315.9936646184444 C15.231514512536263,316.11582256356763 15.45193688233324,316.2229663197953 15.681879782511155,316.3139582043104 C15.95585114979803,316.4319330084377 16.41500686719548,316.62944738638834 16.447350709166848,316.7677074509538 C16.48724990773255,316.95020384986816 16.461181113567836,317.1385791307865 16.37251593754682,317.3084697884242 C16.278021183552042,317.4792930342194 16.179087078698448,317.6260942610746 16.093471026421298,317.7526102274917 C15.86135639580325,318.09799347758377 15.472596099167014,318.67665722271494 16.05859041253061,319.07969331826297 C16.195576096174047,319.18645784688493 16.432130077650907,319.3407325907437 16.647755690793357,319.4800603005954 C16.489020390616275,319.7136819083034 16.41722006117263,319.9820216324868 16.44164297234837,320.25036637460306 C16.475167034771342,320.46160015462846 16.611365044391903,320.6516402148416 16.81771940938799,320.77511403278015 C16.958510250910415,320.85892418774836 17.108813987130297,320.93152406721134 17.25721514441069,321.00252247874494 C17.63202319549065,321.18242070947304 17.77852177383155,321.26623086444124 17.827988826258345,321.4333173517347 C17.863224721398268,321.6481703958981 17.841567709723538,321.86692408211474 17.764569528275274,322.0739045234666 C17.72715214246526,322.216435169177 17.69100314261491,322.3594996375304 17.669440581300663,322.50096263795456 C17.60646408953997,322.9874639856611 17.67787073100752,323.47963485013105 17.878090071664975,323.9390808384927 C18.163291277961676,324.7870601889812 19.074389477907136,325.377903311244 20.121230641326267,325.3937475409673 C20.29600972379746,325.39331220860186 20.470272319505877,325.37774951694047 20.641268884787465,325.34730497101674 C22.453017310483744,324.98581004605705 24.238312849379007,324.53610904342764 25.988149897740357,324.00047044245036 C27.416986681298994,324.7061839766417 28.319443291598127,326.85215100194364 28.554728887115324,327.65768937039655 C28.62497964845784,327.8958208185581 28.879033107085064,328.06297729 29.170530270530968,328.062860756517 L45.088774064282305,328.0254931714993 C45.29050768020156,328.02516396307533 45.480021538946836,327.94406744213103 45.59921113338325,327.8070675192969 C45.718400727819656,327.67006759646273 45.75304637321132,327.49350885342545 45.69252578108116,327.33152373545636 C45.535726640361844,326.96983247052856 45.31947748868163,326.62842406383703 45.050088292512626,326.3172607135475 C44.89801401633165,326.13272799477875 44.76092749600443,325.93975639413867 44.63976543456214,325.73966461370253 C44.352721193704824,325.25072930165476 44.11326806243997,324.74300044316266 43.92376156033325,324.22147301669787 C43.566508414870086,323.20106836528004 43.31735365307697,322.156029293586 43.179219002011976,321.0986105545047 C43.15843002929452,320.90455080978893 43.01368017467621,320.7354406542378 42.801571605542016,320.65740795497135 C42.58946303640782,320.5793752023227 42.34369404067611,320.604817136111 42.160368763866614,320.7237851706481 C41.977043487057124,320.8427531518029 41.885287368607145,321.0363463889109 41.92098013002781,321.2288632794236 C42.067639286031195,322.3496320327371 42.33229232902683,323.45721872984836 42.71181877587673,324.5385636667052 C42.920498834342666,325.1123852134052 43.1836925992917,325.6711430858507 43.498852263846665,326.2094285396393 C43.643547324191516,326.4511799459083 43.807765698323976,326.6842953829861 43.99035182321548,326.907134734184 L44.03284275286414,326.960516998495 L29.649980163282997,326.9952154702971 C29.228977622390758,325.7288936208503 28.464843194020766,324.5619991213249 27.417620874278825,323.58622407139706 L27.98839455612648,323.41806993881744 C28.413303852613076,323.2931554403297 28.733571307427592,323.19920265514236 28.89782728920375,323.1548953757642 C31.6147100147986,322.43156569435024 32.973151377596025,321.3900777176428 32.93636818476585,320.0587240457266 C32.93688777907422,319.91647355013936 32.86814417734827,319.7802555707128 32.746154938002405,319.6818093334271 C32.62416569865654,319.58336309614134 32.45958469297821,319.53128634848633 32.29075973129817,319.5377131460513 C31.94071406221218,319.54470675649867 31.663635466420626,319.789164803715 31.67178738298337,320.0838137099528 C31.68700801449931,320.6331172097129 31.152383332502,321.4343849970209 28.516043115345656,322.1363617727105 C28.34417681781153,322.18280434266103 28.013128082339886,322.27996006370705 27.57363234731719,322.40914514333963 C27.102426963302957,322.54793903054826 26.503114597362917,322.7241005027745 25.837846161520478,322.91307371843544 C24.05310008742294,323.46375047694494 22.23204570419852,323.92716901326986 20.383786534976196,324.3010125905213 C19.79238833299269,324.39695188991044 19.216433078874203,324.0829378199422 19.078617382484552,323.5894270072557 C18.9431310515421,323.28573829499726 18.892147079268774,322.95994943207864 18.92958203222433,322.6370874119476 C18.946071049699928,322.5249846568945 18.976512312731803,322.41394954712763 19.005685189804016,322.30238061471766 C19.134913057086237,321.9331394961483 19.15386517862462,321.5427574528262 19.06085997904929,321.1658722075366 C18.875779218020043,320.67621570109793 18.447544968236866,320.27817138108566 17.755056633577816,320.0112138304898 C17.823535389973454,319.8948385191481 17.90530905090177,319.78435009715 17.999220930812648,319.6813114370479 C18.10561254896765,319.5678401208846 18.15278574441219,319.4229017215248 18.12995588160828,319.2796316780715 C18.107126025146297,319.13636163461814 18.016245099350417,319.00700968202733 17.878090071664978,318.9211479932593 C17.725883756505603,318.827195208072 17.366930529921408,318.60085440739334 17.104374636271487,318.42255764459463 C17.134815899303362,318.3761150746441 17.16779393425456,318.3248681009055 17.1995035832461,318.27842553095496 C17.29907188107952,318.1316243040997 17.412592424469224,317.9608010583045 17.5235761959396,317.7632866803539 C17.72426419886722,317.38910124308177 17.78337957790232,316.97201594983017 17.692905721554407,316.56859160507383 C17.54069940639503,315.9173279804797 16.799962005952736,315.59810203989997 16.258995394157125,315.36535536750404 C16.077083619344933,315.2928803491573 15.902704934611556,315.20770467586794 15.737688764736262,315.1107219667406 C15.60169936655449,315.0338113092877 15.474332551255443,314.94661453008933 15.357172976837825,314.85021651690295 C15.357172976837825,314.76960929779335 15.459912239570404,314.57423021041507 15.94316729020142,314.078308974966 C17.07890851569551,312.8480538381378 18.052206175136988,311.517406733872 18.84586855888667,310.1098714460867 C18.995608599018365,309.8892752176351 19.079808618868217,309.64149044108916 19.091301242081165,309.38760940995894 C19.025794383750245,308.8510322953928 18.687982360664495,308.3644677964676 18.164745298548468,308.0530528021841 C17.907897141717022,307.8550046015903 17.666269616401514,307.6681666765018 17.638365125288963,307.4957419627773 C17.642603335502294,307.36923437737573 17.676212982267895,307.2446476459909 17.737299230142558,307.1290058069608 C17.840672685854965,306.8999958930666 17.95990096606314,306.67579038296043 18.079763439251153,306.45105105021116 C18.33981461309495,305.99970368516813 18.547523836263505,305.5282894999125 18.700004173525606,305.04336074033023 L18.76342347150868,304.81595229436545 C18.897916224993487,304.282238817986 19.07116464465628,303.7559697118938 19.282193329010216,303.2401078519049 C19.782125987083244,302.0786464390943 20.556159299024017,301.014369894046 21.557677740642877,300.11137334063756 C22.77088891105906,299.030916310983 24.68044397332939,298.2664822860496 27.242583611845543,297.8378227036323 C29.202405824406025,297.47567815388356 31.191024964440274,297.2344608585219 33.19258214861746,297.11609449014765 C34.19083094490951,297.0706018522523 35.191994809233336,297.1184040417837 36.1777285046807,297.25862513585804 C36.51846713811048,297.30161477546795 36.83765024976809,297.10774966248783 36.896583203192534,296.82200790200574 C36.95551615661698,296.5362661415236 36.732637468622116,296.2631902574389 36.39462250378281,296.20699452893143 C35.31560124067778,296.05263959423525 34.21950230217327,296 33.12662607871506,296.0500506718571 C31.063014633524592,296.17052836750537 29.012671076245866,296.4181738857384 26.992077384812404,296.7909965004937 C24.132501238755637,297.27143687929265 22.054250843850333,298.11541047804945 20.635561147968993,299.3773672063614 C19.516471280669478,300.38531559218086 18.651200315723603,301.57341272101837 18.09181310586793,302.8701687602297 C17.86342052213886,303.4281639068827 17.67577212301796,303.99739105562253 17.46649882775483,304.7999376150721 C17.331143464004644,305.218617489941 17.149609490634397,305.62573620768126 16.924263829999553,306.0159855960766 C16.79742523403341,306.2594087213347 16.66551309422862,306.5028318465928 16.551992550838918,306.7547961341407 C16.405980861474422,307.03545114670067 16.34810945196926,307.3429826880201 16.383931411183774,307.6478814160636 C16.511908364522927,308.12585975145026 16.84016523029104,308.5490352670904 17.30858477577698,308.83990737812815 C17.618705142914205,309.0795937448845 17.82228108943987,309.2482817001072 17.824817861359193,309.39508292696246 C17.801860798469317,309.4764050413557 17.765349966156254,309.5545841147909 17.716370861808137,309.6272957767153 C16.956607507080747,310.97462510548957 16.02522316700576,312.248501666364 14.938605610149539,313.42651152772874 C14.48008408573192,313.89680927630855 14.000000000000057,314.4450451307825 14.102105069752804,314.9932809852564 "/>
    <path id="path-11" opacity="1" fill-rule="evenodd" d="M21.171454215925994,305.53180845877597 L21.23487351390907,305.29425738259204 C21.34603137135241,304.8504461519486 21.48726437222037,304.4123516279902 21.657880231456165,303.98212132582785 C22.03982707581359,303.09090479683164 22.631742849029866,302.27382614371544 23.39810576811169,301.5799194318331 C24.22003153912315,300.92758901606896 25.226090295123214,300.4625553779845 26.321101212151532,300.2288143221218 C26.542189256267857,300.17637193798566 26.71230784478817,300.0274018377755 26.765824790164867,299.8393771342016 C26.819341735541567,299.65135242528936 26.747890763984724,299.45366656749104 26.57903789781356,299.3225873409886 C26.410185095061692,299.19150811982433 26.17032671448272,299.14752684059613 25.952000897890045,299.20761160585255 C24.6451778335263,299.49347464016273 23.447980352947326,300.05810126265845 22.475989175437807,300.8469809428432 C21.592808163148355,301.6461334579279 20.910512216571146,302.5872217267694 20.470036780233205,303.61378370208195 C20.279756879787584,304.08763110432716 20.122838827884557,304.5705111059874 20.000099782178633,305.05990924226677 L19.93668048419556,305.29105444673337 C19.857533771086366,305.5780378199629 20.069559070682317,305.86473533116697 20.410422640129116,305.93164161846533 C20.457605836796947,305.94096264225436 20.50591935561273,305.9456205651091 20.554384446550692,305.9455210071862 "/>
    <ellipse id="ellipse-12" opacity="1" rx="0.6341929798307309" ry="0.5338226431099375" cx="19.797158028632722" cy="307.24377767522947"/>
    <path id="path-13" opacity="1" fill-rule="evenodd" d="M31.212631225585938,306.8220520019531 C31.169193267822266,308.6419677734375 31.933244705200195,310.4101257324219 33.355567932128906,311.7812805175781 C33.803260803222656,312.1728210449219 34.2913932800293,312.53009033203125 34.814212799072266,312.8489074707031 C35.74203872680664,313.4526672363281 36.621028900146484,314.02972412109375 36.85441207885742,314.8326110839844 C36.12985610961914,315.073974609375 35.653404235839844,315.662841796875 35.651981353759766,316.3187561035156 L35.651981353759766,317.38641357421875 C35.655311584472656,318.0626525878906 36.16291809082031,318.66424560546875 36.92036819458008,318.9878845214844 C36.92036819458008,320.16717529296875 38.056121826171875,321.1231689453125 39.45713806152344,321.1231689453125 C40.85816192626953,321.1231689453125 41.99391174316406,320.16717529296875 41.99391174316406,318.8896484375 C42.75136184692383,318.66424560546875 43.258968353271484,318.0626525878906 43.262298583984375,317.38641357421875 L43.262298583984375,316.3187561035156 C43.26046371459961,315.6623229980469 42.78288650512695,315.07330322265625 42.05733108520508,314.8326110839844 C42.29008102416992,314.0318603515625 43.169708251953125,313.4526672363281 44.097530364990234,312.8489074707031 C44.620216369628906,312.52996826171875 45.10833740234375,312.1726989746094 45.556175231933594,311.7812805175781 C46.979042053222656,310.4102783203125 47.74395751953125,308.6421813964844 47.7016487121582,306.8220520019531 C47.683956146240234,302.9771423339844 44.02412414550781,299.8467712402344 39.45713806152344,299.770263671875 L38.055625915527344,300.9690246582031 C35.436012268066406,301.4633483886719 33.288673400878906,303.3027648925781 32.664024353027344,305.58062744140625 L31.212631225585938,306.8220520019531 L32.664024353027344,305.58062744140625 C32.552398681640625,305.9876708984375 32.48939895629883,306.40875244140625 32.48101806640625,306.838623046875 C32.4418830871582,308.38897705078125 33.090084075927734,309.8960266113281 34.299251556396484,311.0659484863281 C34.69727325439453,311.409423828125 35.12969970703125,311.7234191894531 35.59173583984375,312.0044250488281 C36.33843231201172,312.4428405761719 37.00046920776367,312.9754333496094 37.554561614990234,313.5834655761719 L37.554561614990234,308.84527587890625 L36.92036819458008,308.84527587890625 C35.869606018066406,308.84527587890625 35.017791748046875,308.1282653808594 35.017791748046875,307.2438049316406 C35.017791748046875,306.35931396484375 35.869606018066406,305.642333984375 36.92036819458008,305.642333984375 C37.971134185791016,305.642333984375 38.82294845581055,306.35931396484375 38.82294845581055,307.2438049316406 L38.82294845581055,307.7776184082031 L40.09133529663086,307.7776184082031 L40.09133529663086,307.2438049316406 C40.09133529663086,306.35931396484375 40.94314956665039,305.642333984375 41.99391174316406,305.642333984375 C43.044677734375,305.642333984375 43.89649200439453,306.35931396484375 43.89649200439453,307.2438049316406 C43.89649200439453,308.1282653808594 43.044677734375,308.84527587890625 41.99391174316406,308.84527587890625 L41.359718322753906,308.84527587890625 L41.359718322753906,313.5834655761719 C41.91486358642578,312.9751281738281 42.577964782714844,312.4423828125 43.32571792602539,312.0038757324219 C43.787559509277344,311.72308349609375 44.21977615356445,311.4092712402344 44.61756896972656,311.0659484863281 C45.82550048828125,309.8955383300781 46.47273254394531,308.3886413574219 46.433265686035156,306.838623046875 L39.4571418762207,300.8379211425781 C38.979400634765625,300.8379211425781 38.51039505004883,300.8832092285156 38.055625915527344,300.9690246582031 L32.664024353027344,305.58062744140625 L37.554561614990234,307.7776184082031 L36.92036819458008,307.7776184082031 C36.57011413574219,307.7776184082031 36.28617477416992,307.5386047363281 36.28617477416992,307.2437744140625 C36.28617477416992,306.948974609375 36.57011413574219,306.7099609375 36.92036819458008,306.7099609375 C37.27062225341797,306.7099609375 37.554561614990234,306.948974609375 37.554561614990234,307.2437744140625 L37.554561614990234,307.7776184082031 L41.359718322753906,307.2437744140625 L41.359718322753906,307.7776184082031 L41.99391174316406,307.7776184082031 C42.34416580200195,307.7776184082031 42.62810516357422,307.5386047363281 42.62810516357422,307.2437744140625 C42.62810516357422,306.948974609375 42.34416580200195,306.7099609375 41.99391174316406,306.7099609375 C41.64365768432617,306.7099609375 41.359718322753906,306.948974609375 41.359718322753906,307.2437744140625 L40.09133529663086,314.71728515625 L40.09133529663086,308.8452453613281 L38.82294845581055,308.8452453613281 L38.82294845581055,314.71728515625 L40.09133529663086,314.71728515625 L41.359718322753906,317.92022705078125 C41.70997619628906,317.92022705078125 41.99391174316406,317.6812438964844 41.99391174316406,317.38641357421875 L41.99391174316406,316.3187561035156 C41.99391174316406,316.0239562988281 41.70997619628906,315.7849426269531 41.359718322753906,315.7849426269531 L37.554561614990234,315.7849426269531 C37.204307556152344,315.7849426269531 36.92036819458008,316.0239562988281 36.92036819458008,316.3187561035156 L36.92036819458008,317.38641357421875 C36.92036819458008,317.6812438964844 37.204307556152344,317.92022705078125 37.554561614990234,317.92022705078125 L41.359718322753906,317.92022705078125 L39.4571418762207,320.0555419921875 C38.756629943847656,320.0555419921875 38.18875503540039,319.5775146484375 38.18875503540039,318.9878845214844 L40.725528717041016,318.9878845214844 L39.4571418762207,320.0555419921875 L31.212631225585938,306.8220520019531Z"/>
    <path id="path-14" opacity="1" fill-rule="evenodd" d="M49.604228080677146,307.24377767522924 L51.50680702016934,307.24377767522924 C51.85706209977726,307.24377767522924 52.14100000000007,307.0047771104225 52.14100000000007,306.7099550321193 C52.14100000000007,306.4151329538161 51.85706209977726,306.17613238900935 51.50680702016934,306.17613238900935 L49.604228080677146,306.17613238900935 C49.25397300106923,306.17613238900935 48.97003510084642,306.4151329538161 48.97003510084642,306.7099550321193 "/>
    <path id="path-15" opacity="1" fill-rule="evenodd" d="M46.63176558421041,301.2046421137265 C46.80017001252555,301.2047535758944 46.96171228254101,301.1484810890291 47.080774213930574,301.0482320792953 L48.425897524151566,299.915460430616 C48.590760174932235,299.7814311934232 48.65687859823747,299.5829541090415 48.598840174011066,299.39631400260987 C48.54080168636537,299.20967389084 48.36763852760678,299.063916308605 48.145905953165055,299.01506329453883 C47.924173442142624,298.96621028047264 47.68837833598542,299.02186450462915 47.52914865067091,299.16063521325856 L46.18339114747009,300.29287303929476 C46.00161628223838,300.4454929062687 45.947095028858826,300.67530740832706 46.04529017205232,300.87498720046193 "/>
    <path id="path-16" opacity="1" fill-rule="evenodd" d="M39.45714040338548,298.7026153854705 C39.8073954829934,298.7026153854705 40.09133338321621,298.46361484735485 40.09133338321621,298.16879274236055 L40.09133338321621,296.5673248130307 C40.09133338321621,296.2725027080364 39.8073954829934,296.0335021699208 39.45714040338548,296.0335021699208 C39.10688532377756,296.0335021699208 38.82294742355475,296.2725027080364 38.82294742355475,296.5673248130307 L38.82294742355475,298.16879274236055 "/>
    <path id="path-17" opacity="1" fill-rule="evenodd" d="M32.730889659300814,301.0482320792953 C32.84997651447449,300.9481038736257 32.91689002551853,300.81223402663585 32.91689002551853,300.67055255929506 C32.91689002551853,300.5288710919542 32.84997651447449,300.3930012236115 32.730889659300814,300.29287303929476 L31.3851321561,299.16063521325856 C31.22590247078549,299.02186450462915 30.990107364628294,298.96621028047264 30.768374853605863,299.01506329453883 C30.546642279164136,299.063916308605 30.37347912040555,299.20967389084 30.31544063275985,299.39631400260987 C30.25740220853345,299.5829541090415 30.323520631838683,299.7814311934232 30.488383282619345,299.915460430616 L31.833506592840326,301.0482320792953 C31.95246109193911,301.1484716937506 32.11387747464808,301.2047951606783 32.28219812607057,301.2047951606783 "/>
    <path id="path-18" opacity="1" fill-rule="evenodd" d="M27.407473786601415,306.17613238900935 C27.057218706993496,306.17613238900935 26.773280806770686,306.4151329538161 26.773280806770686,306.7099550321193 C26.773280806770686,307.0047771104225 27.057218706993496,307.24377767522924 27.407473786601415,307.24377767522924 L29.31005272609361,307.24377767522924 C29.66030780570153,307.24377767522924 29.944245705924338,307.0047771104225 29.944245705924338,306.7099550321193 C29.944245705924338,306.4151329538161 29.66030780570153,306.17613238900935 29.31005272609361,306.17613238900935 "/>
    <path id="path-19" opacity="1" fill-rule="evenodd" d="M22.96321678161621,457.3480224609375 L23.70345115661621,458.3187255859375 C23.9599609375,458.1689147949219 30,454.60223388671875 30,450.8333435058594 L28.666667938232422,450.8333435058594 L22.96321678161621,457.3480224609375Z"/>
    <linearGradient id="linearGradient-20" x1="0.5" y1="0" x2="0.5" y2="1">
      <stop offset="0" stop-color="rgb(255,255,255)" stop-opacity="1"/>
      <stop offset="1" stop-color="rgb(255,255,255)" stop-opacity="1"/>
    </linearGradient>
    <path id="path-21" opacity="1" fill-rule="evenodd" d="M27.99186134338379,448.5 L28,447.3333435058594 L29.43131446838379,447.8309326171875 C29.809894561767578,448.16192626953125 30.015625,448.6150817871094 30,449.0833435058594 L28.66666603088379,449.0833435058594 C28.683917999267578,448.92327880859375 28.6181640625,448.7649230957031 28.4873046875,448.6518249511719 C28.3564453125,448.53875732421875 28.1748046875,448.48291015625 27.99186134338379,448.5Z"/>
    <linearGradient id="linearGradient-22" x1="0.5" y1="0" x2="0.5" y2="1">
      <stop offset="0" stop-color="rgb(255,255,255)" stop-opacity="1"/>
      <stop offset="1" stop-color="rgb(255,255,255)" stop-opacity="1"/>
    </linearGradient>
    <path id="path-23" opacity="1" fill-rule="evenodd" d="M41.6298828125,463.181396484375 L42.3701171875,464.152099609375 C42.62662887573242,464.0022888183594 48.66666793823242,460.43560791015625 48.66666793823242,456.6667175292969 L47.33333206176758,456.6667175292969 L41.6298828125,463.181396484375Z"/>
    <path id="path-24" opacity="1" fill-rule="evenodd" d="M46.65852737426758,454.3333435058594 L46.666664123535156,453.16668701171875 L48.09798049926758,453.6642761230469 C48.4765625,453.9952697753906 48.682289123535156,454.44842529296875 48.666664123535156,454.91668701171875 L47.33333206176758,454.91668701171875 C47.3505859375,454.7566223144531 47.284828186035156,454.5982666015625 47.153968811035156,454.48516845703125 C47.023109436035156,454.3721008300781 46.841468811035156,454.3162536621094 46.65852737426758,454.3333435058594Z"/>
    <linearGradient id="linearGradient-25" x1="0.5" y1="0" x2="0.5" y2="1">
      <stop offset="0" stop-color="rgb(255,255,255)" stop-opacity="1"/>
      <stop offset="1" stop-color="rgb(255,255,255)" stop-opacity="1"/>
    </linearGradient>
    <path id="path-26" opacity="1" fill-rule="evenodd" d="M32.29655075073242,475.43145751953125 L33.03678512573242,476.40216064453125 C33.293296813964844,476.2523498535156 39.333335876464844,472.6856689453125 39.333335876464844,468.9167785644531 L38,468.9167785644531 L32.29655075073242,475.43145751953125Z"/>
    <linearGradient id="linearGradient-27" x1="0.5" y1="0" x2="0.5" y2="1">
      <stop offset="0" stop-color="rgb(255,255,255)" stop-opacity="1"/>
      <stop offset="1" stop-color="rgb(255,255,255)" stop-opacity="1"/>
    </linearGradient>
    <path id="path-28" opacity="1" fill-rule="evenodd" d="M37.3251953125,466.5834045410156 L37.33333206176758,465.416748046875 L38.7646484375,465.9143371582031 C39.14323043823242,466.2453308105469 39.34895706176758,466.698486328125 39.33333206176758,467.166748046875 L38,467.166748046875 C38.01725387573242,467.0066833496094 37.95149612426758,466.84832763671875 37.82063674926758,466.7352294921875 C37.68977737426758,466.6221618652344 37.50813674926758,466.5663146972656 37.3251953125,466.5834045410156Z"/>
    <linearGradient id="linearGradient-29" x1="0.5" y1="0" x2="0.5" y2="1">
      <stop offset="0" stop-color="rgb(0,0,0)" stop-opacity="1"/>
      <stop offset="1" stop-color="rgb(255,255,255)" stop-opacity="1"/>
    </linearGradient>
    <path id="path-30" opacity="1" fill-rule="evenodd" d="M46.66666793823242,450.8333435058594 C43.72265625,450.8333435058594 42.370765686035156,452.3167724609375 41.475914001464844,453.298583984375 L41.190757751464844,453.298583984375 C40.2958984375,452.3167724609375 38.944007873535156,450.8333435058594 36,450.8333435058594 C35.028648376464844,450.82965087890625 34.084312438964844,451.1130676269531 33.319984436035156,451.6377258300781 C33.323890686035156,451.5642395019531 33.333335876464844,451.49017333984375 33.333335876464844,451.41668701171875 C33.333335876464844,448.3057556152344 31.466796875,445 28,445 C25.055988311767578,445 23.7041015625,446.4833984375 22.666667938232422,447.62158203125 L22.524089813232422,447.4652099609375 C21.629230499267578,446.4833984375 20.27734375,445 17.33333396911621,445 C13.866536140441895,445 12,448.3057556152344 12,451.41668701171875 C12,456.35711669921875 21.902019500732422,461.61224365234375 22.3232421875,461.8332824707031 C22.534503936767578,461.9443664550781 22.798828125,461.9443664550781 23.010089874267578,461.8332824707031 C25.8671875,460.30572509765625 28.466796875,458.4366455078125 30.7333984375,456.2799072265625 C30.69108009338379,456.60205078125 30.6689453125,456.9259033203125 30.66666603088379,457.25006103515625 C30.66666603088379,459.1253967285156 32.061851501464844,461.2377014160156 34.811195373535156,463.5343017578125 C33.746742248535156,464.0036926269531 32.830726623535156,464.695556640625 32.14453125,465.5486145019531 L31.857421875,465.5486145019531 C30.96256446838379,464.5668029785156 29.61067771911621,463.0834045410156 26.666667938232422,463.0834045410156 C23.199871063232422,463.0834045410156 21.333332061767578,466.38916015625 21.333332061767578,469.5000915527344 C21.333332061767578,474.4405212402344 31.2353515625,479.6956481933594 31.65657615661621,479.91668701171875 C31.86783790588379,480.02777099609375 32.132164001464844,480.02777099609375 32.343421936035156,479.91668701171875 C32.7646484375,479.6956481933594 42.666664123535156,474.4405212402344 42.666664123535156,469.5000915527344 C42.665367126464844,468.7566833496094 42.558921813964844,468.01611328125 42.349937438964844,467.2957763671875 C45.08984375,465.7480163574219 52,461.42852783203125 52,457.25006103515625 L50.364444732666016,455.2822570800781 C49.95307159423828,453.93328857421875 49.11328887939453,452.6578674316406 47.79357147216797,452.18914794921875 L46.66666793823242,450.8333435058594 L46.66666793823242,452.0000305175781 C47.07530975341797,452.0000305175781 47.450645446777344,452.0673522949219 47.79357147216797,452.18914794921875 L50.364444732666016,455.2822570800781 C50.5680046081543,455.94976806640625 50.666664123535156,456.63531494140625 50.666664123535156,457.25006103515625 L41.91341018676758,466.1487731933594 C41.06673049926758,464.398193359375 39.51725387573242,463.0834045410156 37.33333206176758,463.0834045410156 C36.9873046875,463.0825500488281 36.6416015625,463.1047668457031 36.29948043823242,463.1492004394531 C33.4892578125,460.9281005859375 32,458.8892517089844 32,457.25006103515625 C32,455.0702209472656 33.24055862426758,452.0000305175781 36,452.0000305175781 C38.30208206176758,452.0000305175781 39.28255081176758,453.076416015625 40.14811325073242,454.0260314941406 C40.37109375,454.2835388183594 40.61393356323242,454.5279235839844 40.87467575073242,454.7569274902344 C41.1318359375,454.9702453613281 41.53483200073242,454.9702453613281 41.7919921875,454.7569274902344 C42.052734375,454.5279235839844 42.29557418823242,454.2835388183594 42.5185546875,454.0260314941406 C43.38411331176758,453.076416015625 44.36458206176758,452.0000305175781 46.66666793823242,452.0000305175781 L22.66666603088379,460.64752197265625 C19.765949249267578,459.0624084472656 13.333333015441895,454.83038330078125 13.333333015441895,451.41668701171875 C13.333333015441895,449.2368469238281 14.573892593383789,446.1666564941406 17.333332061767578,446.1666564941406 C19.63541603088379,446.1666564941406 20.61588478088379,447.2430419921875 21.4814453125,448.1926574707031 C21.704425811767578,448.4501647949219 21.947265625,448.6945495605469 22.2080078125,448.9235534667969 C22.465167999267578,449.1368713378906 22.8681640625,449.1368713378906 23.125324249267578,448.9235534667969 C23.386066436767578,448.6945495605469 23.62890625,448.4501647949219 23.851886749267578,448.1926574707031 C24.71744728088379,447.2430419921875 25.69791603088379,446.1666564941406 28,446.1666564941406 C30.759441375732422,446.1666564941406 32,449.2368469238281 32,451.41668701171875 L22.66666603088379,460.64752197265625 L22.66666603088379,469.5001220703125 C22.66666603088379,472.913818359375 29.09928321838379,477.1458435058594 32,478.73095703125 L41.33333206176758,469.5001220703125 C41.33333206176758,467.3202819824219 40.0927734375,464.2500915527344 37.33333206176758,464.2500915527344 C35.03125,464.2500915527344 34.05078125,465.32647705078125 33.185218811035156,466.2760925292969 C32.96223831176758,466.5335998535156 32.719398498535156,466.7779846191406 32.458656311035156,467.0069885253906 C32.20149612426758,467.2203063964844 31.79850196838379,467.2203063964844 31.541339874267578,467.0069885253906 C31.280597686767578,466.7779846191406 31.03775978088379,466.5335998535156 30.814777374267578,466.2760925292969 C29.94921875,465.32647705078125 28.96875,464.2500915527344 26.66666603088379,464.2500915527344 C23.9072265625,464.2500915527344 22.66666603088379,467.3202819824219 22.66666603088379,469.5001220703125 L46.66666793823242,450.8333435058594Z"/>
    <linearGradient id="linearGradient-31" x1="0.25" y1="-0.06" x2="0.93" y2="0.65">
      <stop offset="0" stop-color="rgb(230,32,32)" stop-opacity="1"/>
      <stop offset="1" stop-color="rgb(201,25,230)" stop-opacity="1"/>
    </linearGradient>
    <rect id="rect-32" opacity="1" x="18" y="343" width="26.999996185302734" height="37"/>
    <path id="path-33" opacity="1" fill-rule="evenodd" d="M44.47983932495117,343 L31.500593185424805,343 C31.42580795288086,343 31.351903915405273,343.01568603515625 31.283910751342773,343.04595947265625 L18.30347442626953,348.83184814453125 C18.118553161621094,348.91424560546875 17.99999237060547,349.0939025878906 18,349.291748046875 L18,355.37188720703125 C17.999984741210938,355.5219421386719 18.06847381591797,355.66424560546875 18.186960220336914,355.7603759765625 L21.567977905273438,358.5024108886719 L21.567977905273438,363.4283447265625 L18.521345138549805,363.4283447265625 C18.234071731567383,363.4283447265625 18.001190185546875,363.6548156738281 18.001190185546875,363.9342041015625 L18.001190185546875,379.494140625 C18.001190185546875,379.7735290527344 18.234071731567383,380 18.521345138549805,380 L44.47983932495117,380 C44.767112731933594,380 44.999996185302734,379.7735290527344 44.999996185302734,379.494140625 L44.999996185302734,343.505859375 L44.47983932495117,343 L19.041501998901367,378.98828125 L43.95968246459961,378.98828125 L43.95968246459961,357.5542907714844 L40.913047790527344,357.5542907714844 C40.62577819824219,357.5542907714844 40.39289474487305,357.32781982421875 40.39289474487305,357.0484313964844 L40.39289474487305,349.58685302734375 C40.39289474487305,349.3074951171875 40.62577819824219,349.08099365234375 40.913047790527344,349.08099365234375 L43.95968246459961,349.08099365234375 L43.95968246459961,344.01171875 L31.6141357421875,344.01171875 L19.041501998901367,349.6163635253906 L19.041501998901367,355.1357116699219 L22.42133140563965,357.8771667480469 C22.539817810058594,357.9732971191406 22.608306884765625,358.1156311035156 22.608291625976562,358.26568603515625 L22.608291625976562,363.9342041015625 C22.608291625976562,364.21356201171875 22.375408172607422,364.4400634765625 22.088134765625,364.4400634765625 L19.041501998901367,364.4400634765625 L19.041501998901367,378.98828125 L43.95968246459961,356.5437316894531 L41.43320846557617,356.5437316894531 L41.43320846557617,350.09271240234375 L43.95968246459961,350.09271240234375 L43.95968246459961,356.5437316894531 L44.47983932495117,343Z"/>
    <path id="path-34" opacity="1" fill-rule="evenodd" d="M38.58572006225586,357.5554504394531 L36.6043701171875,357.5554504394531 L36.236141204833984,357.4068603515625 C36.13855743408203,357.3117370605469 36.08389663696289,357.18280029296875 36.08421325683594,357.0484313964844 L36.08421325683594,349.58685302734375 C36.08421325683594,349.3074645996094 36.31709289550781,349.08099365234375 36.6043701171875,349.08099365234375 L38.58572006225586,349.08099365234375 C38.87299346923828,349.08099365234375 39.10587692260742,349.3074645996094 39.10587692260742,349.58685302734375 L39.10587692260742,357.0495910644531 C39.10587692260742,357.3289489746094 38.87299346923828,357.5554504394531 38.58572006225586,357.5554504394531 L38.0655632019043,350.093017578125 L37.12452697753906,350.093017578125 L37.12452697753906,356.5437316894531 L38.0655632019043,356.5437316894531 L38.0655632019043,350.093017578125 L38.58572006225586,357.5554504394531Z"/>
    <path id="path-35" opacity="1" fill-rule="evenodd" d="M34.373939514160156,357.5554504394531 L32.39228820800781,357.5554504394531 L32.02406311035156,357.4068603515625 C31.92647933959961,357.3117370605469 31.871816635131836,357.18280029296875 31.872133255004883,357.0484313964844 L31.872133255004883,349.58685302734375 C31.872133255004883,349.3074645996094 32.10501480102539,349.08099365234375 32.39228820800781,349.08099365234375 L34.373939514160156,349.08099365234375 C34.66121292114258,349.08099365234375 34.89409255981445,349.3074645996094 34.89409255981445,349.58685302734375 L34.89409255981445,357.0495910644531 C34.89409255981445,357.3289489746094 34.66121292114258,357.5554504394531 34.373939514160156,357.5554504394531 L33.85377883911133,350.093017578125 L32.912445068359375,350.093017578125 L32.912445068359375,356.5437316894531 L33.85377883911133,356.5437316894531 L33.85377883911133,350.093017578125 L34.373939514160156,357.5554504394531Z"/>
    <path id="path-36" opacity="1" fill-rule="evenodd" d="M30.16304588317871,357.5554504394531 L28.180208206176758,357.5554504394531 L27.811981201171875,357.4068603515625 C27.714399337768555,357.3117370605469 27.65973663330078,357.18280029296875 27.660053253173828,357.0484313964844 L27.660053253173828,349.58685302734375 C27.660053253173828,349.3074645996094 27.892934799194336,349.08099365234375 28.180208206176758,349.08099365234375 L30.16304588317871,349.08099365234375 C30.450321197509766,349.08099365234375 30.683202743530273,349.3074645996094 30.683202743530273,349.58685302734375 L30.683202743530273,357.0495910644531 C30.683202743530273,357.3289489746094 30.450321197509766,357.5554504394531 30.16304588317871,357.5554504394531 L29.64170265197754,350.093017578125 L28.700366973876953,350.093017578125 L28.700366973876953,356.5437316894531 L29.64170265197754,356.5437316894531 L29.64170265197754,350.093017578125 L30.16304588317871,357.5554504394531Z"/>
    <path id="path-37" opacity="1" fill-rule="evenodd" d="M41.50751495361328,366.3189697265625 L21.493669509887695,366.3189697265625 C21.20639419555664,366.3189697265625 20.973512649536133,366.5454406738281 20.973512649536133,366.8248291015625 L20.973512649536133,376.603515625 C20.973512649536133,376.8829040527344 21.20639419555664,377.109375 21.493669509887695,377.109375 L41.50751495361328,377.109375 C41.79479217529297,377.109375 42.027671813964844,376.8829040527344 42.027671813964844,376.603515625 L42.027671813964844,366.8248291015625 L41.50751495361328,366.3189697265625 L22.013826370239258,367.3306884765625 L40.98735809326172,367.3306884765625 L40.98735809326172,369.955078125 L22.013826370239258,369.955078125 L22.013826370239258,367.3306884765625 L22.013826370239258,376.09765625 L40.98735809326172,376.09765625 L40.98735809326172,370.966796875 L22.013826370239258,370.966796875 L22.013826370239258,376.09765625 L41.50751495361328,366.3189697265625Z"/>
    <path id="path-38" opacity="1" fill-rule="evenodd" d="M25.648681059974773,374.0380859375 L37.35220658255438,374.0380859375 C37.63948118990443,374.0380859375 37.87236327244681,373.81160498087144 37.87236327244681,373.5322265625 C37.87236327244681,373.25284814412856 37.63948118990443,373.0263671875 37.35220658255438,373.0263671875 L25.648681059974773,373.0263671875 C25.36140645262472,373.0263671875 25.128524370082346,373.25284814412856 25.128524370082346,373.5322265625 "/>
    <path id="path-39" opacity="1" fill-rule="evenodd" d="M41.50751545380955,363.4283359374998 L24.738555468860408,363.4283359374998 C24.451280861510355,363.4283359374998 24.21839877896798,363.6548168941284 24.21839877896798,363.9341953124998 C24.21839877896798,364.21357373087125 24.451280861510355,364.4400546874998 24.738555468860408,364.4400546874998 L41.50751545380955,364.4400546874998 C41.7947900611596,364.4400546874998 42.02767214370198,364.21357373087125 42.02767214370198,363.9341953124998 "/>
    <path id="path-40" opacity="1" fill-rule="evenodd" d="M24.21839877896798,361.35546875 C24.21839877896798,361.63484716837144 24.451280861510355,361.861328125 24.738555468860408,361.861328125 L41.50751545380955,361.861328125 C41.7947900611596,361.861328125 42.02767214370198,361.63484716837144 42.02767214370198,361.35546875 C42.02767214370198,361.07609033162856 41.7947900611596,360.849609375 41.50751545380955,360.849609375 L24.738555468860408,360.849609375 "/>
    <path id="path-41" opacity="1" fill-rule="evenodd" d="M106.06365203857422,321.89410400390625 C106.20598602294922,321.967041015625 106.36373138427734,322.0047607421875 106.52365112304688,322.0041198730469 L107.1436538696289,321.8240966796875 C107.46043395996094,321.59716796875 107.61654663085938,321.2069091796875 107.54365539550781,320.8240966796875 L106.54365539550781,315.1941223144531 L110.66365051269531,311.1941223144531 C110.92559814453125,310.9327087402344 111.02177429199219,310.54803466796875 110.91365051269531,310.1941223144531 C110.79541015625,309.83154296875 110.48123168945312,309.5677795410156 110.10365295410156,309.51409912109375 L104.40365600585938,308.6841125488281 L101.86365509033203,303.5641174316406 C101.69657135009766,303.2191162109375 101.34697723388672,303 100.96365356445312,303 C100.58032989501953,303 100.23074340820312,303.2191162109375 100.06365203857422,303.5641174316406 L97.55365753173828,308.6941223144531 L91.85365295410156,309.52410888671875 C91.47607421875,309.5777893066406 91.16189575195312,309.8415222167969 91.04365539550781,310.2041015625 C90.93553924560547,310.5580139160156 91.03170776367188,310.9427185058594 91.29365539550781,311.2041015625 L95.41365814208984,315.2041015625 L94.41365814208984,320.8341064453125 C94.34688568115234,321.2099609375 94.49991607666016,321.5910339355469 94.8080825805664,321.8163146972656 C95.11624908447266,322.0415954589844 95.52578735351562,322.07177734375 95.86365509033203,321.89410400390625 L100.96365356445312,319.22412109375 L106.06365203857422,321.89410400390625 L101.42366027832031,317.214111328125 C101.28253173828125,317.13800048828125 101.12395477294922,317.1000671386719 100.96365356445312,317.1041259765625 L100.46365356445312,317.1441345214844 L96.69365692138672,319.1441345214844 L97.41365814208984,314.984130859375 C97.47037506103516,314.6577453613281 97.36177825927734,314.3244323730469 97.1236572265625,314.0941162109375 L94.1236572265625,311.16412353515625 L98.32365417480469,310.54412841796875 C98.6468276977539,310.49737548828125 98.92681884765625,310.2957763671875 99.07365417480469,310.0041198730469 L100.96365356445312,306.2541198730469 L102.85365295410156,310.0041198730469 C102.98758697509766,310.2932434082031 103.25128936767578,310.501220703125 103.56365966796875,310.5641174316406 L107.76365661621094,311.1841125488281 L104.76365661621094,314.1141052246094 C104.5255355834961,314.34442138671875 104.41693878173828,314.677734375 104.4736557006836,315.0041198730469 L105.19365692138672,319.214111328125 L101.42366027832031,317.214111328125 L106.06365203857422,321.89410400390625Z"/>
    <path id="path-42" opacity="1" fill-rule="evenodd" d="M131.06365966796875,321.89410400390625 C131.20599365234375,321.967041015625 131.36373901367188,322.0047607421875 131.52365112304688,322.0041198730469 L132.14366149902344,321.8240966796875 C132.46043395996094,321.59716796875 132.61654663085938,321.2069091796875 132.5436553955078,320.8240966796875 L131.5436553955078,315.1941223144531 L135.6636505126953,311.1941223144531 C135.92559814453125,310.9327087402344 136.0217742919922,310.54803466796875 135.9136505126953,310.1941223144531 C135.79541015625,309.83154296875 135.48123168945312,309.5677795410156 135.10365295410156,309.51409912109375 L129.40365600585938,308.6841125488281 L126.86365509033203,303.5641174316406 C126.69657135009766,303.2191162109375 126.34697723388672,303 125.96365356445312,303 C125.58032989501953,303 125.23074340820312,303.2191162109375 125.06365203857422,303.5641174316406 L122.55365753173828,308.6941223144531 L116.85365295410156,309.52410888671875 C116.47607421875,309.5777893066406 116.16189575195312,309.8415222167969 116.04365539550781,310.2041015625 C115.93553924560547,310.5580139160156 116.03170776367188,310.9427185058594 116.29365539550781,311.2041015625 L120.41365814208984,315.2041015625 L119.41365814208984,320.8341064453125 C119.34688568115234,321.2099609375 119.49991607666016,321.5910339355469 119.8080825805664,321.8163146972656 C120.11624908447266,322.0415954589844 120.52578735351562,322.07177734375 120.86365509033203,321.89410400390625 L125.96365356445312,319.22412109375 L131.06365966796875,321.89410400390625 L126.42366027832031,317.214111328125 C126.28253173828125,317.13800048828125 126.12395477294922,317.1000671386719 125.96365356445312,317.1041259765625 L125.46365356445312,317.1441345214844 L121.69365692138672,319.1441345214844 L122.41365814208984,314.984130859375 C122.47037506103516,314.6577453613281 122.36177825927734,314.3244323730469 122.1236572265625,314.0941162109375 L119.1236572265625,311.16412353515625 L123.32365417480469,310.54412841796875 C123.6468276977539,310.49737548828125 123.92681884765625,310.2957763671875 124.07365417480469,310.0041198730469 L125.96365356445312,306.2541198730469 L127.85365295410156,310.0041198730469 C127.98758697509766,310.2932434082031 128.25128173828125,310.501220703125 128.56365966796875,310.5641174316406 L132.76365661621094,311.1841125488281 L129.76365661621094,314.1141052246094 C129.52554321289062,314.34442138671875 129.41693115234375,314.677734375 129.47366333007812,315.0041198730469 L130.19366455078125,319.214111328125 L126.42366027832031,317.214111328125 L131.06365966796875,321.89410400390625Z"/>
    <path id="path-43" opacity="1" fill-rule="evenodd" d="M156.06365966796875,321.89410400390625 C156.20599365234375,321.967041015625 156.36373901367188,322.0047607421875 156.52366638183594,322.0041198730469 L157.14366149902344,321.8240966796875 C157.46044921875,321.59716796875 157.61656188964844,321.2069091796875 157.54367065429688,320.8240966796875 L156.5436553955078,315.1941223144531 L160.66366577148438,311.1941223144531 C160.92559814453125,310.9327087402344 161.0217742919922,310.54803466796875 160.91366577148438,310.1941223144531 C160.79541015625,309.83154296875 160.48123168945312,309.5677795410156 160.10366821289062,309.51409912109375 L154.40365600585938,308.6841125488281 L151.86366271972656,303.5641174316406 C151.6965789794922,303.2191162109375 151.34698486328125,303 150.9636688232422,303 C150.58033752441406,303 150.23074340820312,303.2191162109375 150.06365966796875,303.5641174316406 L147.5536651611328,308.6941223144531 L141.85366821289062,309.52410888671875 C141.47608947753906,309.5777893066406 141.1619110107422,309.8415222167969 141.0436553955078,310.2041015625 C140.935546875,310.5580139160156 141.03172302246094,310.9427185058594 141.2936553955078,311.2041015625 L145.41366577148438,315.2041015625 L144.41366577148438,320.8341064453125 C144.34689331054688,321.2099609375 144.4999237060547,321.5910339355469 144.80809020996094,321.8163146972656 C145.1162567138672,322.0415954589844 145.5258026123047,322.07177734375 145.86366271972656,321.89410400390625 L150.9636688232422,319.22412109375 L156.06365966796875,321.89410400390625 L151.4236602783203,317.214111328125 C151.28253173828125,317.13800048828125 151.12396240234375,317.1000671386719 150.96365356445312,317.1041259765625 L150.46365356445312,317.1441345214844 L146.69366455078125,319.1441345214844 L147.4136505126953,314.984130859375 C147.4703826904297,314.6577453613281 147.3617706298828,314.3244323730469 147.1236572265625,314.0941162109375 L144.1236572265625,311.16412353515625 L148.3236541748047,310.54412841796875 C148.64682006835938,310.49737548828125 148.92681884765625,310.2957763671875 149.0736541748047,310.0041198730469 L150.96365356445312,306.2541198730469 L152.85365295410156,310.0041198730469 C152.9875946044922,310.2932434082031 153.25128173828125,310.501220703125 153.56365966796875,310.5641174316406 L157.76365661621094,311.1841125488281 L154.76365661621094,314.1141052246094 C154.52554321289062,314.34442138671875 154.41693115234375,314.677734375 154.47366333007812,315.0041198730469 L155.19366455078125,319.214111328125 L151.4236602783203,317.214111328125 L156.06365966796875,321.89410400390625Z"/>
    <path id="path-44" opacity="1" fill-rule="evenodd" d="M183.06365966796875,321.89410400390625 C183.20599365234375,321.967041015625 183.36373901367188,322.0047607421875 183.52366638183594,322.0041198730469 L184.14366149902344,321.8240966796875 C184.46044921875,321.59716796875 184.61656188964844,321.2069091796875 184.54367065429688,320.8240966796875 L183.5436553955078,315.1941223144531 L187.66366577148438,311.1941223144531 C187.92559814453125,310.9327087402344 188.0217742919922,310.54803466796875 187.91366577148438,310.1941223144531 C187.79541015625,309.83154296875 187.48123168945312,309.5677795410156 187.10366821289062,309.51409912109375 L181.40365600585938,308.6841125488281 L178.86366271972656,303.5641174316406 C178.6965789794922,303.2191162109375 178.34698486328125,303 177.9636688232422,303 C177.58033752441406,303 177.23074340820312,303.2191162109375 177.06365966796875,303.5641174316406 L174.5536651611328,308.6941223144531 L168.85366821289062,309.52410888671875 C168.47608947753906,309.5777893066406 168.1619110107422,309.8415222167969 168.0436553955078,310.2041015625 C167.935546875,310.5580139160156 168.03172302246094,310.9427185058594 168.2936553955078,311.2041015625 L172.41366577148438,315.2041015625 L171.41366577148438,320.8341064453125 C171.34689331054688,321.2099609375 171.4999237060547,321.5910339355469 171.80809020996094,321.8163146972656 C172.1162567138672,322.0415954589844 172.5258026123047,322.07177734375 172.86366271972656,321.89410400390625 L177.9636688232422,319.22412109375 L183.06365966796875,321.89410400390625 L178.4236602783203,317.214111328125 C178.28253173828125,317.13800048828125 178.12396240234375,317.1000671386719 177.96365356445312,317.1041259765625 L177.46365356445312,317.1441345214844 L173.69366455078125,319.1441345214844 L174.4136505126953,314.984130859375 C174.4703826904297,314.6577453613281 174.3617706298828,314.3244323730469 174.1236572265625,314.0941162109375 L171.1236572265625,311.16412353515625 L175.3236541748047,310.54412841796875 C175.64682006835938,310.49737548828125 175.92681884765625,310.2957763671875 176.0736541748047,310.0041198730469 L177.96365356445312,306.2541198730469 L179.85365295410156,310.0041198730469 C179.9875946044922,310.2932434082031 180.25128173828125,310.501220703125 180.56365966796875,310.5641174316406 L184.76365661621094,311.1841125488281 L181.76365661621094,314.1141052246094 C181.52554321289062,314.34442138671875 181.41693115234375,314.677734375 181.47366333007812,315.0041198730469 L182.19366455078125,319.214111328125 L178.4236602783203,317.214111328125 L183.06365966796875,321.89410400390625Z"/>
    <rect id="rect-45" opacity="1" x="64" y="303" width="19.957313537597656" height="19.009033203125"/>
    <path id="path-46" opacity="1" fill-rule="evenodd" d="M79.52365112304688,322.0041198730469 C79.36373138427734,322.0047607421875 79.20598602294922,321.967041015625 79.06365203857422,321.89410400390625 L73.96365356445312,319.22412109375 L68.86365509033203,321.89410400390625 C68.52578735351562,322.07177734375 68.11624908447266,322.0415954589844 67.8080825805664,321.8163146972656 C67.49991607666016,321.5910339355469 67.34688568115234,321.2099609375 67.41365814208984,320.8341064453125 L68.41365814208984,315.2041015625 L64.29365539550781,311.2041015625 C64.03170776367188,310.9427185058594 63.93553924560547,310.5580139160156 64.04365539550781,310.2041015625 C64.16189575195312,309.8415222167969 64.47607421875,309.5777893066406 64.85365295410156,309.52410888671875 L70.55365753173828,308.6941223144531 L73.06365203857422,303.5641174316406 C73.23074340820312,303.2191162109375 73.58032989501953,303 73.96365356445312,303 C74.34697723388672,303 74.69657135009766,303.2191162109375 74.86365509033203,303.5641174316406 L77.40365600585938,308.6841125488281 L83.10365295410156,309.51409912109375 C83.48123168945312,309.5677795410156 83.79541015625,309.83154296875 83.91365051269531,310.1941223144531 C84.02177429199219,310.54803466796875 83.92559814453125,310.9327087402344 83.66365051269531,311.1941223144531 L79.54365539550781,315.1941223144531 L80.54365539550781,320.8240966796875 C80.61654663085938,321.2069091796875 80.46043395996094,321.59716796875 80.1436538696289,321.8240966796875 L79.52365112304688,322.0041198730469Z"/>
    <path id="path-47" opacity="1" fill-rule="evenodd" d="M106.06365203857422,370.89410400390625 C106.20598602294922,370.967041015625 106.36373138427734,371.0047607421875 106.52365112304688,371.0041198730469 L107.1436538696289,370.8240966796875 C107.46043395996094,370.59716796875 107.61654663085938,370.2069091796875 107.54365539550781,369.8240966796875 L106.54365539550781,364.1941223144531 L110.66365051269531,360.1941223144531 C110.92559814453125,359.9327087402344 111.02177429199219,359.54803466796875 110.91365051269531,359.1941223144531 C110.79541015625,358.83154296875 110.48123168945312,358.5677795410156 110.10365295410156,358.51409912109375 L104.40365600585938,357.6841125488281 L101.86365509033203,352.5641174316406 C101.69657135009766,352.2191162109375 101.34697723388672,352 100.96365356445312,352 C100.58032989501953,352 100.23074340820312,352.2191162109375 100.06365203857422,352.5641174316406 L97.55365753173828,357.6941223144531 L91.85365295410156,358.52410888671875 C91.47607421875,358.5777893066406 91.16189575195312,358.8415222167969 91.04365539550781,359.2041015625 C90.93553924560547,359.5580139160156 91.03170776367188,359.9427185058594 91.29365539550781,360.2041015625 L95.41365814208984,364.2041015625 L94.41365814208984,369.8341064453125 C94.34688568115234,370.2099609375 94.49991607666016,370.5910339355469 94.8080825805664,370.8163146972656 C95.11624908447266,371.0415954589844 95.52578735351562,371.07177734375 95.86365509033203,370.89410400390625 L100.96365356445312,368.22412109375 L106.06365203857422,370.89410400390625 L101.42366027832031,366.214111328125 C101.28253173828125,366.13800048828125 101.12395477294922,366.1000671386719 100.96365356445312,366.1041259765625 L100.46365356445312,366.1441345214844 L96.69365692138672,368.1441345214844 L97.41365814208984,363.984130859375 C97.47037506103516,363.6577453613281 97.36177825927734,363.3244323730469 97.1236572265625,363.0941162109375 L94.1236572265625,360.16412353515625 L98.32365417480469,359.54412841796875 C98.6468276977539,359.49737548828125 98.92681884765625,359.2957763671875 99.07365417480469,359.0041198730469 L100.96365356445312,355.2541198730469 L102.85365295410156,359.0041198730469 C102.98758697509766,359.2932434082031 103.25128936767578,359.501220703125 103.56365966796875,359.5641174316406 L107.76365661621094,360.1841125488281 L104.76365661621094,363.1141052246094 C104.5255355834961,363.34442138671875 104.41693878173828,363.677734375 104.4736557006836,364.0041198730469 L105.19365692138672,368.214111328125 L101.42366027832031,366.214111328125 L106.06365203857422,370.89410400390625Z"/>
    <path id="path-48" opacity="1" fill-rule="evenodd" d="M131.06365966796875,370.89410400390625 C131.20599365234375,370.967041015625 131.36373901367188,371.0047607421875 131.52365112304688,371.0041198730469 L132.14366149902344,370.8240966796875 C132.46043395996094,370.59716796875 132.61654663085938,370.2069091796875 132.5436553955078,369.8240966796875 L131.5436553955078,364.1941223144531 L135.6636505126953,360.1941223144531 C135.92559814453125,359.9327087402344 136.0217742919922,359.54803466796875 135.9136505126953,359.1941223144531 C135.79541015625,358.83154296875 135.48123168945312,358.5677795410156 135.10365295410156,358.51409912109375 L129.40365600585938,357.6841125488281 L126.86365509033203,352.5641174316406 C126.69657135009766,352.2191162109375 126.34697723388672,352 125.96365356445312,352 C125.58032989501953,352 125.23074340820312,352.2191162109375 125.06365203857422,352.5641174316406 L122.55365753173828,357.6941223144531 L116.85365295410156,358.52410888671875 C116.47607421875,358.5777893066406 116.16189575195312,358.8415222167969 116.04365539550781,359.2041015625 C115.93553924560547,359.5580139160156 116.03170776367188,359.9427185058594 116.29365539550781,360.2041015625 L120.41365814208984,364.2041015625 L119.41365814208984,369.8341064453125 C119.34688568115234,370.2099609375 119.49991607666016,370.5910339355469 119.8080825805664,370.8163146972656 C120.11624908447266,371.0415954589844 120.52578735351562,371.07177734375 120.86365509033203,370.89410400390625 L125.96365356445312,368.22412109375 L131.06365966796875,370.89410400390625 L126.42366027832031,366.214111328125 C126.28253173828125,366.13800048828125 126.12395477294922,366.1000671386719 125.96365356445312,366.1041259765625 L125.46365356445312,366.1441345214844 L121.69365692138672,368.1441345214844 L122.41365814208984,363.984130859375 C122.47037506103516,363.6577453613281 122.36177825927734,363.3244323730469 122.1236572265625,363.0941162109375 L119.1236572265625,360.16412353515625 L123.32365417480469,359.54412841796875 C123.6468276977539,359.49737548828125 123.92681884765625,359.2957763671875 124.07365417480469,359.0041198730469 L125.96365356445312,355.2541198730469 L127.85365295410156,359.0041198730469 C127.98758697509766,359.2932434082031 128.25128173828125,359.501220703125 128.56365966796875,359.5641174316406 L132.76365661621094,360.1841125488281 L129.76365661621094,363.1141052246094 C129.52554321289062,363.34442138671875 129.41693115234375,363.677734375 129.47366333007812,364.0041198730469 L130.19366455078125,368.214111328125 L126.42366027832031,366.214111328125 L131.06365966796875,370.89410400390625Z"/>
    <path id="path-49" opacity="1" fill-rule="evenodd" d="M156.06365966796875,370.89410400390625 C156.20599365234375,370.967041015625 156.36373901367188,371.0047607421875 156.52366638183594,371.0041198730469 L157.14366149902344,370.8240966796875 C157.46044921875,370.59716796875 157.61656188964844,370.2069091796875 157.54367065429688,369.8240966796875 L156.5436553955078,364.1941223144531 L160.66366577148438,360.1941223144531 C160.92559814453125,359.9327087402344 161.0217742919922,359.54803466796875 160.91366577148438,359.1941223144531 C160.79541015625,358.83154296875 160.48123168945312,358.5677795410156 160.10366821289062,358.51409912109375 L154.40365600585938,357.6841125488281 L151.86366271972656,352.5641174316406 C151.6965789794922,352.2191162109375 151.34698486328125,352 150.9636688232422,352 C150.58033752441406,352 150.23074340820312,352.2191162109375 150.06365966796875,352.5641174316406 L147.5536651611328,357.6941223144531 L141.85366821289062,358.52410888671875 C141.47608947753906,358.5777893066406 141.1619110107422,358.8415222167969 141.0436553955078,359.2041015625 C140.935546875,359.5580139160156 141.03172302246094,359.9427185058594 141.2936553955078,360.2041015625 L145.41366577148438,364.2041015625 L144.41366577148438,369.8341064453125 C144.34689331054688,370.2099609375 144.4999237060547,370.5910339355469 144.80809020996094,370.8163146972656 C145.1162567138672,371.0415954589844 145.5258026123047,371.07177734375 145.86366271972656,370.89410400390625 L150.9636688232422,368.22412109375 L156.06365966796875,370.89410400390625 L151.4236602783203,366.214111328125 C151.28253173828125,366.13800048828125 151.12396240234375,366.1000671386719 150.96365356445312,366.1041259765625 L150.46365356445312,366.1441345214844 L146.69366455078125,368.1441345214844 L147.4136505126953,363.984130859375 C147.4703826904297,363.6577453613281 147.3617706298828,363.3244323730469 147.1236572265625,363.0941162109375 L144.1236572265625,360.16412353515625 L148.3236541748047,359.54412841796875 C148.64682006835938,359.49737548828125 148.92681884765625,359.2957763671875 149.0736541748047,359.0041198730469 L150.96365356445312,355.2541198730469 L152.85365295410156,359.0041198730469 C152.9875946044922,359.2932434082031 153.25128173828125,359.501220703125 153.56365966796875,359.5641174316406 L157.76365661621094,360.1841125488281 L154.76365661621094,363.1141052246094 C154.52554321289062,363.34442138671875 154.41693115234375,363.677734375 154.47366333007812,364.0041198730469 L155.19366455078125,368.214111328125 L151.4236602783203,366.214111328125 L156.06365966796875,370.89410400390625Z"/>
    <path id="path-50" opacity="1" fill-rule="evenodd" d="M183.06365966796875,370.89410400390625 C183.20599365234375,370.967041015625 183.36373901367188,371.0047607421875 183.52366638183594,371.0041198730469 L184.14366149902344,370.8240966796875 C184.46044921875,370.59716796875 184.61656188964844,370.2069091796875 184.54367065429688,369.8240966796875 L183.5436553955078,364.1941223144531 L187.66366577148438,360.1941223144531 C187.92559814453125,359.9327087402344 188.0217742919922,359.54803466796875 187.91366577148438,359.1941223144531 C187.79541015625,358.83154296875 187.48123168945312,358.5677795410156 187.10366821289062,358.51409912109375 L181.40365600585938,357.6841125488281 L178.86366271972656,352.5641174316406 C178.6965789794922,352.2191162109375 178.34698486328125,352 177.9636688232422,352 C177.58033752441406,352 177.23074340820312,352.2191162109375 177.06365966796875,352.5641174316406 L174.5536651611328,357.6941223144531 L168.85366821289062,358.52410888671875 C168.47608947753906,358.5777893066406 168.1619110107422,358.8415222167969 168.0436553955078,359.2041015625 C167.935546875,359.5580139160156 168.03172302246094,359.9427185058594 168.2936553955078,360.2041015625 L172.41366577148438,364.2041015625 L171.41366577148438,369.8341064453125 C171.34689331054688,370.2099609375 171.4999237060547,370.5910339355469 171.80809020996094,370.8163146972656 C172.1162567138672,371.0415954589844 172.5258026123047,371.07177734375 172.86366271972656,370.89410400390625 L177.9636688232422,368.22412109375 L183.06365966796875,370.89410400390625 L178.4236602783203,366.214111328125 C178.28253173828125,366.13800048828125 178.12396240234375,366.1000671386719 177.96365356445312,366.1041259765625 L177.46365356445312,366.1441345214844 L173.69366455078125,368.1441345214844 L174.4136505126953,363.984130859375 C174.4703826904297,363.6577453613281 174.3617706298828,363.3244323730469 174.1236572265625,363.0941162109375 L171.1236572265625,360.16412353515625 L175.3236541748047,359.54412841796875 C175.64682006835938,359.49737548828125 175.92681884765625,359.2957763671875 176.0736541748047,359.0041198730469 L177.96365356445312,355.2541198730469 L179.85365295410156,359.0041198730469 C179.9875946044922,359.2932434082031 180.25128173828125,359.501220703125 180.56365966796875,359.5641174316406 L184.76365661621094,360.1841125488281 L181.76365661621094,363.1141052246094 C181.52554321289062,363.34442138671875 181.41693115234375,363.677734375 181.47366333007812,364.0041198730469 L182.19366455078125,368.214111328125 L178.4236602783203,366.214111328125 L183.06365966796875,370.89410400390625Z"/>
    <rect id="rect-51" opacity="1" x="64" y="352" width="19.957313537597656" height="19.009033203125"/>
    <path id="path-52" opacity="1" fill-rule="evenodd" d="M79.52365112304688,371.0041198730469 C79.36373138427734,371.0047607421875 79.20598602294922,370.967041015625 79.06365203857422,370.89410400390625 L73.96365356445312,368.22412109375 L68.86365509033203,370.89410400390625 C68.52578735351562,371.07177734375 68.11624908447266,371.0415954589844 67.8080825805664,370.8163146972656 C67.49991607666016,370.5910339355469 67.34688568115234,370.2099609375 67.41365814208984,369.8341064453125 L68.41365814208984,364.2041015625 L64.29365539550781,360.2041015625 C64.03170776367188,359.9427185058594 63.93553924560547,359.5580139160156 64.04365539550781,359.2041015625 C64.16189575195312,358.8415222167969 64.47607421875,358.5777893066406 64.85365295410156,358.52410888671875 L70.55365753173828,357.6941223144531 L73.06365203857422,352.5641174316406 C73.23074340820312,352.2191162109375 73.58032989501953,352 73.96365356445312,352 C74.34697723388672,352 74.69657135009766,352.2191162109375 74.86365509033203,352.5641174316406 L77.40365600585938,357.6841125488281 L83.10365295410156,358.51409912109375 C83.48123168945312,358.5677795410156 83.79541015625,358.83154296875 83.91365051269531,359.1941223144531 C84.02177429199219,359.54803466796875 83.92559814453125,359.9327087402344 83.66365051269531,360.1941223144531 L79.54365539550781,364.1941223144531 L80.54365539550781,369.8240966796875 C80.61654663085938,370.2069091796875 80.46043395996094,370.59716796875 80.1436538696289,370.8240966796875 L79.52365112304688,371.0041198730469Z"/>
    <path id="path-53" opacity="1" fill-rule="evenodd" d="M106.06365203857422,421.89410400390625 C106.20598602294922,421.967041015625 106.36373138427734,422.0047607421875 106.52365112304688,422.0041198730469 L107.1436538696289,421.8240966796875 C107.46043395996094,421.59716796875 107.61654663085938,421.2069091796875 107.54365539550781,420.8240966796875 L106.54365539550781,415.1941223144531 L110.66365051269531,411.1941223144531 C110.92559814453125,410.9327087402344 111.02177429199219,410.54803466796875 110.91365051269531,410.1941223144531 C110.79541015625,409.83154296875 110.48123168945312,409.5677795410156 110.10365295410156,409.51409912109375 L104.40365600585938,408.6841125488281 L101.86365509033203,403.5641174316406 C101.69657135009766,403.2191162109375 101.34697723388672,403 100.96365356445312,403 C100.58032989501953,403 100.23074340820312,403.2191162109375 100.06365203857422,403.5641174316406 L97.55365753173828,408.6941223144531 L91.85365295410156,409.52410888671875 C91.47607421875,409.5777893066406 91.16189575195312,409.8415222167969 91.04365539550781,410.2041015625 C90.93553924560547,410.5580139160156 91.03170776367188,410.9427185058594 91.29365539550781,411.2041015625 L95.41365814208984,415.2041015625 L94.41365814208984,420.8341064453125 C94.34688568115234,421.2099609375 94.49991607666016,421.5910339355469 94.8080825805664,421.8163146972656 C95.11624908447266,422.0415954589844 95.52578735351562,422.07177734375 95.86365509033203,421.89410400390625 L100.96365356445312,419.22412109375 L106.06365203857422,421.89410400390625 L101.42366027832031,417.214111328125 C101.28253173828125,417.13800048828125 101.12395477294922,417.1000671386719 100.96365356445312,417.1041259765625 L100.46365356445312,417.1441345214844 L96.69365692138672,419.1441345214844 L97.41365814208984,414.984130859375 C97.47037506103516,414.6577453613281 97.36177825927734,414.3244323730469 97.1236572265625,414.0941162109375 L94.1236572265625,411.16412353515625 L98.32365417480469,410.54412841796875 C98.6468276977539,410.49737548828125 98.92681884765625,410.2957763671875 99.07365417480469,410.0041198730469 L100.96365356445312,406.2541198730469 L102.85365295410156,410.0041198730469 C102.98758697509766,410.2932434082031 103.25128936767578,410.501220703125 103.56365966796875,410.5641174316406 L107.76365661621094,411.1841125488281 L104.76365661621094,414.1141052246094 C104.5255355834961,414.34442138671875 104.41693878173828,414.677734375 104.4736557006836,415.0041198730469 L105.19365692138672,419.214111328125 L101.42366027832031,417.214111328125 L106.06365203857422,421.89410400390625Z"/>
    <path id="path-54" opacity="1" fill-rule="evenodd" d="M131.06365966796875,421.89410400390625 C131.20599365234375,421.967041015625 131.36373901367188,422.0047607421875 131.52365112304688,422.0041198730469 L132.14366149902344,421.8240966796875 C132.46043395996094,421.59716796875 132.61654663085938,421.2069091796875 132.5436553955078,420.8240966796875 L131.5436553955078,415.1941223144531 L135.6636505126953,411.1941223144531 C135.92559814453125,410.9327087402344 136.0217742919922,410.54803466796875 135.9136505126953,410.1941223144531 C135.79541015625,409.83154296875 135.48123168945312,409.5677795410156 135.10365295410156,409.51409912109375 L129.40365600585938,408.6841125488281 L126.86365509033203,403.5641174316406 C126.69657135009766,403.2191162109375 126.34697723388672,403 125.96365356445312,403 C125.58032989501953,403 125.23074340820312,403.2191162109375 125.06365203857422,403.5641174316406 L122.55365753173828,408.6941223144531 L116.85365295410156,409.52410888671875 C116.47607421875,409.5777893066406 116.16189575195312,409.8415222167969 116.04365539550781,410.2041015625 C115.93553924560547,410.5580139160156 116.03170776367188,410.9427185058594 116.29365539550781,411.2041015625 L120.41365814208984,415.2041015625 L119.41365814208984,420.8341064453125 C119.34688568115234,421.2099609375 119.49991607666016,421.5910339355469 119.8080825805664,421.8163146972656 C120.11624908447266,422.0415954589844 120.52578735351562,422.07177734375 120.86365509033203,421.89410400390625 L125.96365356445312,419.22412109375 L131.06365966796875,421.89410400390625 L126.42366027832031,417.214111328125 C126.28253173828125,417.13800048828125 126.12395477294922,417.1000671386719 125.96365356445312,417.1041259765625 L125.46365356445312,417.1441345214844 L121.69365692138672,419.1441345214844 L122.41365814208984,414.984130859375 C122.47037506103516,414.6577453613281 122.36177825927734,414.3244323730469 122.1236572265625,414.0941162109375 L119.1236572265625,411.16412353515625 L123.32365417480469,410.54412841796875 C123.6468276977539,410.49737548828125 123.92681884765625,410.2957763671875 124.07365417480469,410.0041198730469 L125.96365356445312,406.2541198730469 L127.85365295410156,410.0041198730469 C127.98758697509766,410.2932434082031 128.25128173828125,410.501220703125 128.56365966796875,410.5641174316406 L132.76365661621094,411.1841125488281 L129.76365661621094,414.1141052246094 C129.52554321289062,414.34442138671875 129.41693115234375,414.677734375 129.47366333007812,415.0041198730469 L130.19366455078125,419.214111328125 L126.42366027832031,417.214111328125 L131.06365966796875,421.89410400390625Z"/>
    <path id="path-55" opacity="1" fill-rule="evenodd" d="M156.06365966796875,421.89410400390625 C156.20599365234375,421.967041015625 156.36373901367188,422.0047607421875 156.52366638183594,422.0041198730469 L157.14366149902344,421.8240966796875 C157.46044921875,421.59716796875 157.61656188964844,421.2069091796875 157.54367065429688,420.8240966796875 L156.5436553955078,415.1941223144531 L160.66366577148438,411.1941223144531 C160.92559814453125,410.9327087402344 161.0217742919922,410.54803466796875 160.91366577148438,410.1941223144531 C160.79541015625,409.83154296875 160.48123168945312,409.5677795410156 160.10366821289062,409.51409912109375 L154.40365600585938,408.6841125488281 L151.86366271972656,403.5641174316406 C151.6965789794922,403.2191162109375 151.34698486328125,403 150.9636688232422,403 C150.58033752441406,403 150.23074340820312,403.2191162109375 150.06365966796875,403.5641174316406 L147.5536651611328,408.6941223144531 L141.85366821289062,409.52410888671875 C141.47608947753906,409.5777893066406 141.1619110107422,409.8415222167969 141.0436553955078,410.2041015625 C140.935546875,410.5580139160156 141.03172302246094,410.9427185058594 141.2936553955078,411.2041015625 L145.41366577148438,415.2041015625 L144.41366577148438,420.8341064453125 C144.34689331054688,421.2099609375 144.4999237060547,421.5910339355469 144.80809020996094,421.8163146972656 C145.1162567138672,422.0415954589844 145.5258026123047,422.07177734375 145.86366271972656,421.89410400390625 L150.9636688232422,419.22412109375 L156.06365966796875,421.89410400390625 L151.4236602783203,417.214111328125 C151.28253173828125,417.13800048828125 151.12396240234375,417.1000671386719 150.96365356445312,417.1041259765625 L150.46365356445312,417.1441345214844 L146.69366455078125,419.1441345214844 L147.4136505126953,414.984130859375 C147.4703826904297,414.6577453613281 147.3617706298828,414.3244323730469 147.1236572265625,414.0941162109375 L144.1236572265625,411.16412353515625 L148.3236541748047,410.54412841796875 C148.64682006835938,410.49737548828125 148.92681884765625,410.2957763671875 149.0736541748047,410.0041198730469 L150.96365356445312,406.2541198730469 L152.85365295410156,410.0041198730469 C152.9875946044922,410.2932434082031 153.25128173828125,410.501220703125 153.56365966796875,410.5641174316406 L157.76365661621094,411.1841125488281 L154.76365661621094,414.1141052246094 C154.52554321289062,414.34442138671875 154.41693115234375,414.677734375 154.47366333007812,415.0041198730469 L155.19366455078125,419.214111328125 L151.4236602783203,417.214111328125 L156.06365966796875,421.89410400390625Z"/>
    <path id="path-56" opacity="1" fill-rule="evenodd" d="M183.06365966796875,421.89410400390625 C183.20599365234375,421.967041015625 183.36373901367188,422.0047607421875 183.52366638183594,422.0041198730469 L184.14366149902344,421.8240966796875 C184.46044921875,421.59716796875 184.61656188964844,421.2069091796875 184.54367065429688,420.8240966796875 L183.5436553955078,415.1941223144531 L187.66366577148438,411.1941223144531 C187.92559814453125,410.9327087402344 188.0217742919922,410.54803466796875 187.91366577148438,410.1941223144531 C187.79541015625,409.83154296875 187.48123168945312,409.5677795410156 187.10366821289062,409.51409912109375 L181.40365600585938,408.6841125488281 L178.86366271972656,403.5641174316406 C178.6965789794922,403.2191162109375 178.34698486328125,403 177.9636688232422,403 C177.58033752441406,403 177.23074340820312,403.2191162109375 177.06365966796875,403.5641174316406 L174.5536651611328,408.6941223144531 L168.85366821289062,409.52410888671875 C168.47608947753906,409.5777893066406 168.1619110107422,409.8415222167969 168.0436553955078,410.2041015625 C167.935546875,410.5580139160156 168.03172302246094,410.9427185058594 168.2936553955078,411.2041015625 L172.41366577148438,415.2041015625 L171.41366577148438,420.8341064453125 C171.34689331054688,421.2099609375 171.4999237060547,421.5910339355469 171.80809020996094,421.8163146972656 C172.1162567138672,422.0415954589844 172.5258026123047,422.07177734375 172.86366271972656,421.89410400390625 L177.9636688232422,419.22412109375 L183.06365966796875,421.89410400390625 L178.4236602783203,417.214111328125 C178.28253173828125,417.13800048828125 178.12396240234375,417.1000671386719 177.96365356445312,417.1041259765625 L177.46365356445312,417.1441345214844 L173.69366455078125,419.1441345214844 L174.4136505126953,414.984130859375 C174.4703826904297,414.6577453613281 174.3617706298828,414.3244323730469 174.1236572265625,414.0941162109375 L171.1236572265625,411.16412353515625 L175.3236541748047,410.54412841796875 C175.64682006835938,410.49737548828125 175.92681884765625,410.2957763671875 176.0736541748047,410.0041198730469 L177.96365356445312,406.2541198730469 L179.85365295410156,410.0041198730469 C179.9875946044922,410.2932434082031 180.25128173828125,410.501220703125 180.56365966796875,410.5641174316406 L184.76365661621094,411.1841125488281 L181.76365661621094,414.1141052246094 C181.52554321289062,414.34442138671875 181.41693115234375,414.677734375 181.47366333007812,415.0041198730469 L182.19366455078125,419.214111328125 L178.4236602783203,417.214111328125 L183.06365966796875,421.89410400390625Z"/>
    <rect id="rect-57" opacity="1" x="64" y="403" width="19.957313537597656" height="19.009033203125"/>
    <path id="path-58" opacity="1" fill-rule="evenodd" d="M79.52365112304688,422.0041198730469 C79.36373138427734,422.0047607421875 79.20598602294922,421.967041015625 79.06365203857422,421.89410400390625 L73.96365356445312,419.22412109375 L68.86365509033203,421.89410400390625 C68.52578735351562,422.07177734375 68.11624908447266,422.0415954589844 67.8080825805664,421.8163146972656 C67.49991607666016,421.5910339355469 67.34688568115234,421.2099609375 67.41365814208984,420.8341064453125 L68.41365814208984,415.2041015625 L64.29365539550781,411.2041015625 C64.03170776367188,410.9427185058594 63.93553924560547,410.5580139160156 64.04365539550781,410.2041015625 C64.16189575195312,409.8415222167969 64.47607421875,409.5777893066406 64.85365295410156,409.52410888671875 L70.55365753173828,408.6941223144531 L73.06365203857422,403.5641174316406 C73.23074340820312,403.2191162109375 73.58032989501953,403 73.96365356445312,403 C74.34697723388672,403 74.69657135009766,403.2191162109375 74.86365509033203,403.5641174316406 L77.40365600585938,408.6841125488281 L83.10365295410156,409.51409912109375 C83.48123168945312,409.5677795410156 83.79541015625,409.83154296875 83.91365051269531,410.1941223144531 C84.02177429199219,410.54803466796875 83.92559814453125,410.9327087402344 83.66365051269531,411.1941223144531 L79.54365539550781,415.1941223144531 L80.54365539550781,420.8240966796875 C80.61654663085938,421.2069091796875 80.46043395996094,421.59716796875 80.1436538696289,421.8240966796875 L79.52365112304688,422.0041198730469Z"/>
    <path id="path-59" opacity="1" fill-rule="evenodd" d="M106.06365203857422,471.89410400390625 C106.20598602294922,471.967041015625 106.36373138427734,472.0047607421875 106.52365112304688,472.0041198730469 L107.1436538696289,471.8240966796875 C107.46043395996094,471.59716796875 107.61654663085938,471.2069091796875 107.54365539550781,470.8240966796875 L106.54365539550781,465.1941223144531 L110.66365051269531,461.1941223144531 C110.92559814453125,460.9327087402344 111.02177429199219,460.54803466796875 110.91365051269531,460.1941223144531 C110.79541015625,459.83154296875 110.48123168945312,459.5677795410156 110.10365295410156,459.51409912109375 L104.40365600585938,458.6841125488281 L101.86365509033203,453.5641174316406 C101.69657135009766,453.2191162109375 101.34697723388672,453 100.96365356445312,453 C100.58032989501953,453 100.23074340820312,453.2191162109375 100.06365203857422,453.5641174316406 L97.55365753173828,458.6941223144531 L91.85365295410156,459.52410888671875 C91.47607421875,459.5777893066406 91.16189575195312,459.8415222167969 91.04365539550781,460.2041015625 C90.93553924560547,460.5580139160156 91.03170776367188,460.9427185058594 91.29365539550781,461.2041015625 L95.41365814208984,465.2041015625 L94.41365814208984,470.8341064453125 C94.34688568115234,471.2099609375 94.49991607666016,471.5910339355469 94.8080825805664,471.8163146972656 C95.11624908447266,472.0415954589844 95.52578735351562,472.07177734375 95.86365509033203,471.89410400390625 L100.96365356445312,469.22412109375 L106.06365203857422,471.89410400390625 L101.42366027832031,467.214111328125 C101.28253173828125,467.13800048828125 101.12395477294922,467.1000671386719 100.96365356445312,467.1041259765625 L100.46365356445312,467.1441345214844 L96.69365692138672,469.1441345214844 L97.41365814208984,464.984130859375 C97.47037506103516,464.6577453613281 97.36177825927734,464.3244323730469 97.1236572265625,464.0941162109375 L94.1236572265625,461.16412353515625 L98.32365417480469,460.54412841796875 C98.6468276977539,460.49737548828125 98.92681884765625,460.2957763671875 99.07365417480469,460.0041198730469 L100.96365356445312,456.2541198730469 L102.85365295410156,460.0041198730469 C102.98758697509766,460.2932434082031 103.25128936767578,460.501220703125 103.56365966796875,460.5641174316406 L107.76365661621094,461.1841125488281 L104.76365661621094,464.1141052246094 C104.5255355834961,464.34442138671875 104.41693878173828,464.677734375 104.4736557006836,465.0041198730469 L105.19365692138672,469.214111328125 L101.42366027832031,467.214111328125 L106.06365203857422,471.89410400390625Z"/>
    <path id="path-60" opacity="1" fill-rule="evenodd" d="M131.06365966796875,471.89410400390625 C131.20599365234375,471.967041015625 131.36373901367188,472.0047607421875 131.52365112304688,472.0041198730469 L132.14366149902344,471.8240966796875 C132.46043395996094,471.59716796875 132.61654663085938,471.2069091796875 132.5436553955078,470.8240966796875 L131.5436553955078,465.1941223144531 L135.6636505126953,461.1941223144531 C135.92559814453125,460.9327087402344 136.0217742919922,460.54803466796875 135.9136505126953,460.1941223144531 C135.79541015625,459.83154296875 135.48123168945312,459.5677795410156 135.10365295410156,459.51409912109375 L129.40365600585938,458.6841125488281 L126.86365509033203,453.5641174316406 C126.69657135009766,453.2191162109375 126.34697723388672,453 125.96365356445312,453 C125.58032989501953,453 125.23074340820312,453.2191162109375 125.06365203857422,453.5641174316406 L122.55365753173828,458.6941223144531 L116.85365295410156,459.52410888671875 C116.47607421875,459.5777893066406 116.16189575195312,459.8415222167969 116.04365539550781,460.2041015625 C115.93553924560547,460.5580139160156 116.03170776367188,460.9427185058594 116.29365539550781,461.2041015625 L120.41365814208984,465.2041015625 L119.41365814208984,470.8341064453125 C119.34688568115234,471.2099609375 119.49991607666016,471.5910339355469 119.8080825805664,471.8163146972656 C120.11624908447266,472.0415954589844 120.52578735351562,472.07177734375 120.86365509033203,471.89410400390625 L125.96365356445312,469.22412109375 L131.06365966796875,471.89410400390625 L126.42366027832031,467.214111328125 C126.28253173828125,467.13800048828125 126.12395477294922,467.1000671386719 125.96365356445312,467.1041259765625 L125.46365356445312,467.1441345214844 L121.69365692138672,469.1441345214844 L122.41365814208984,464.984130859375 C122.47037506103516,464.6577453613281 122.36177825927734,464.3244323730469 122.1236572265625,464.0941162109375 L119.1236572265625,461.16412353515625 L123.32365417480469,460.54412841796875 C123.6468276977539,460.49737548828125 123.92681884765625,460.2957763671875 124.07365417480469,460.0041198730469 L125.96365356445312,456.2541198730469 L127.85365295410156,460.0041198730469 C127.98758697509766,460.2932434082031 128.25128173828125,460.501220703125 128.56365966796875,460.5641174316406 L132.76365661621094,461.1841125488281 L129.76365661621094,464.1141052246094 C129.52554321289062,464.34442138671875 129.41693115234375,464.677734375 129.47366333007812,465.0041198730469 L130.19366455078125,469.214111328125 L126.42366027832031,467.214111328125 L131.06365966796875,471.89410400390625Z"/>
    <path id="path-61" opacity="1" fill-rule="evenodd" d="M156.06365966796875,471.89410400390625 C156.20599365234375,471.967041015625 156.36373901367188,472.0047607421875 156.52366638183594,472.0041198730469 L157.14366149902344,471.8240966796875 C157.46044921875,471.59716796875 157.61656188964844,471.2069091796875 157.54367065429688,470.8240966796875 L156.5436553955078,465.1941223144531 L160.66366577148438,461.1941223144531 C160.92559814453125,460.9327087402344 161.0217742919922,460.54803466796875 160.91366577148438,460.1941223144531 C160.79541015625,459.83154296875 160.48123168945312,459.5677795410156 160.10366821289062,459.51409912109375 L154.40365600585938,458.6841125488281 L151.86366271972656,453.5641174316406 C151.6965789794922,453.2191162109375 151.34698486328125,453 150.9636688232422,453 C150.58033752441406,453 150.23074340820312,453.2191162109375 150.06365966796875,453.5641174316406 L147.5536651611328,458.6941223144531 L141.85366821289062,459.52410888671875 C141.47608947753906,459.5777893066406 141.1619110107422,459.8415222167969 141.0436553955078,460.2041015625 C140.935546875,460.5580139160156 141.03172302246094,460.9427185058594 141.2936553955078,461.2041015625 L145.41366577148438,465.2041015625 L144.41366577148438,470.8341064453125 C144.34689331054688,471.2099609375 144.4999237060547,471.5910339355469 144.80809020996094,471.8163146972656 C145.1162567138672,472.0415954589844 145.5258026123047,472.07177734375 145.86366271972656,471.89410400390625 L150.9636688232422,469.22412109375 L156.06365966796875,471.89410400390625 L151.4236602783203,467.214111328125 C151.28253173828125,467.13800048828125 151.12396240234375,467.1000671386719 150.96365356445312,467.1041259765625 L150.46365356445312,467.1441345214844 L146.69366455078125,469.1441345214844 L147.4136505126953,464.984130859375 C147.4703826904297,464.6577453613281 147.3617706298828,464.3244323730469 147.1236572265625,464.0941162109375 L144.1236572265625,461.16412353515625 L148.3236541748047,460.54412841796875 C148.64682006835938,460.49737548828125 148.92681884765625,460.2957763671875 149.0736541748047,460.0041198730469 L150.96365356445312,456.2541198730469 L152.85365295410156,460.0041198730469 C152.9875946044922,460.2932434082031 153.25128173828125,460.501220703125 153.56365966796875,460.5641174316406 L157.76365661621094,461.1841125488281 L154.76365661621094,464.1141052246094 C154.52554321289062,464.34442138671875 154.41693115234375,464.677734375 154.47366333007812,465.0041198730469 L155.19366455078125,469.214111328125 L151.4236602783203,467.214111328125 L156.06365966796875,471.89410400390625Z"/>
    <path id="path-62" opacity="1" fill-rule="evenodd" d="M183.06365966796875,471.89410400390625 C183.20599365234375,471.967041015625 183.36373901367188,472.0047607421875 183.52366638183594,472.0041198730469 L184.14366149902344,471.8240966796875 C184.46044921875,471.59716796875 184.61656188964844,471.2069091796875 184.54367065429688,470.8240966796875 L183.5436553955078,465.1941223144531 L187.66366577148438,461.1941223144531 C187.92559814453125,460.9327087402344 188.0217742919922,460.54803466796875 187.91366577148438,460.1941223144531 C187.79541015625,459.83154296875 187.48123168945312,459.5677795410156 187.10366821289062,459.51409912109375 L181.40365600585938,458.6841125488281 L178.86366271972656,453.5641174316406 C178.6965789794922,453.2191162109375 178.34698486328125,453 177.9636688232422,453 C177.58033752441406,453 177.23074340820312,453.2191162109375 177.06365966796875,453.5641174316406 L174.5536651611328,458.6941223144531 L168.85366821289062,459.52410888671875 C168.47608947753906,459.5777893066406 168.1619110107422,459.8415222167969 168.0436553955078,460.2041015625 C167.935546875,460.5580139160156 168.03172302246094,460.9427185058594 168.2936553955078,461.2041015625 L172.41366577148438,465.2041015625 L171.41366577148438,470.8341064453125 C171.34689331054688,471.2099609375 171.4999237060547,471.5910339355469 171.80809020996094,471.8163146972656 C172.1162567138672,472.0415954589844 172.5258026123047,472.07177734375 172.86366271972656,471.89410400390625 L177.9636688232422,469.22412109375 L183.06365966796875,471.89410400390625 L178.4236602783203,467.214111328125 C178.28253173828125,467.13800048828125 178.12396240234375,467.1000671386719 177.96365356445312,467.1041259765625 L177.46365356445312,467.1441345214844 L173.69366455078125,469.1441345214844 L174.4136505126953,464.984130859375 C174.4703826904297,464.6577453613281 174.3617706298828,464.3244323730469 174.1236572265625,464.0941162109375 L171.1236572265625,461.16412353515625 L175.3236541748047,460.54412841796875 C175.64682006835938,460.49737548828125 175.92681884765625,460.2957763671875 176.0736541748047,460.0041198730469 L177.96365356445312,456.2541198730469 L179.85365295410156,460.0041198730469 C179.9875946044922,460.2932434082031 180.25128173828125,460.501220703125 180.56365966796875,460.5641174316406 L184.76365661621094,461.1841125488281 L181.76365661621094,464.1141052246094 C181.52554321289062,464.34442138671875 181.41693115234375,464.677734375 181.47366333007812,465.0041198730469 L182.19366455078125,469.214111328125 L178.4236602783203,467.214111328125 L183.06365966796875,471.89410400390625Z"/>
    <rect id="rect-63" opacity="1" x="64" y="453" width="19.957313537597656" height="19.009033203125"/>
    <path id="path-64" opacity="1" fill-rule="evenodd" d="M79.52365112304688,472.0041198730469 C79.36373138427734,472.0047607421875 79.20598602294922,471.967041015625 79.06365203857422,471.89410400390625 L73.96365356445312,469.22412109375 L68.86365509033203,471.89410400390625 C68.52578735351562,472.07177734375 68.11624908447266,472.0415954589844 67.8080825805664,471.8163146972656 C67.49991607666016,471.5910339355469 67.34688568115234,471.2099609375 67.41365814208984,470.8341064453125 L68.41365814208984,465.2041015625 L64.29365539550781,461.2041015625 C64.03170776367188,460.9427185058594 63.93553924560547,460.5580139160156 64.04365539550781,460.2041015625 C64.16189575195312,459.8415222167969 64.47607421875,459.5777893066406 64.85365295410156,459.52410888671875 L70.55365753173828,458.6941223144531 L73.06365203857422,453.5641174316406 C73.23074340820312,453.2191162109375 73.58032989501953,453 73.96365356445312,453 C74.34697723388672,453 74.69657135009766,453.2191162109375 74.86365509033203,453.5641174316406 L77.40365600585938,458.6841125488281 L83.10365295410156,459.51409912109375 C83.48123168945312,459.5677795410156 83.79541015625,459.83154296875 83.91365051269531,460.1941223144531 C84.02177429199219,460.54803466796875 83.92559814453125,460.9327087402344 83.66365051269531,461.1941223144531 L79.54365539550781,465.1941223144531 L80.54365539550781,470.8240966796875 C80.61654663085938,471.2069091796875 80.46043395996094,471.59716796875 80.1436538696289,471.8240966796875 L79.52365112304688,472.0041198730469Z"/>
    <path id="path-65" opacity="1" fill-rule="evenodd" d="M8,283 L352,283 C356.415320195952,283 360,286.584679804048 360,291 L360,485 C360,489.415320195952 356.415320195952,493 352,493 L8,493 C3.584679804048001,493 8.881784197001252e-16,489.415320195952 0,485 L0,291 C0,286.584679804048 3.5846798040479984,283 8,283Z"/>
    <linearGradient id="linearGradient-66" x1="0.07" y1="0.81" x2="0.9" y2="0.73">
      <stop offset="0" stop-color="rgb(57,159,242)" stop-opacity="0.24"/>
      <stop offset="1" stop-color="rgb(28,28,28)" stop-opacity="0.76"/>
    </linearGradient>
  </defs>
  <g transform="translate(410.1392198182138, 0)" opacity="1">
    <g opacity="1">
      <use xlink:href="#path-1" fill="url(#pattern-2)" fill-opacity="1"/>
    </g>
    <g opacity="1">
      <use xlink:href="#path-3" fill="url(#pattern-4)" fill-opacity="1"/>
    </g>
    <g opacity="1">
      <use xlink:href="#path-5" fill="url(#linearGradient-6)"/>
    </g>
    <g opacity="1">
      <g opacity="1">
        <use xlink:href="#path-7" fill="rgb(168,134,31)" fill-opacity="1"/>
      </g>
      <g opacity="1">
        <use xlink:href="#path-8" fill="rgb(168,134,31)" fill-opacity="1"/>
      </g>
    </g>
    <g opacity="1">
      <g opacity="1">
        <g opacity="1">
          <use xlink:href="#path-10" fill="rgb(51,225,255)" fill-opacity="1"/>
        </g>
        <g opacity="1">
          <use xlink:href="#path-11" fill="rgb(51,225,255)" fill-opacity="1"/>
        </g>
        <g opacity="1">
          <use xlink:href="#ellipse-12" fill="rgb(51,225,255)" fill-opacity="1"/>
        </g>
        <g opacity="1">
          <use xlink:href="#path-13" fill="rgb(51,225,255)" fill-opacity="1"/>
        </g>
        <g opacity="1">
          <use xlink:href="#path-14" fill="rgb(51,225,255)" fill-opacity="1"/>
        </g>
        <g opacity="1">
          <use xlink:href="#path-15" fill="rgb(51,225,255)" fill-opacity="1"/>
        </g>
        <g opacity="1">
          <use xlink:href="#path-16" fill="rgb(51,225,255)" fill-opacity="1"/>
        </g>
        <g opacity="1">
          <use xlink:href="#path-17" fill="rgb(51,225,255)" fill-opacity="1"/>
        </g>
        <g opacity="1">
          <use xlink:href="#path-18" fill="rgb(51,225,255)" fill-opacity="1"/>
        </g>
      </g>
    </g>
    <g opacity="1">
      <g opacity="1">
        <use xlink:href="#path-19" fill="url(#linearGradient-20)"/>
        <use xlink:href="#path-19" fill="rgb(218,29,113)" fill-opacity="1"/>
      </g>
      <g opacity="1">
        <use xlink:href="#path-21" fill="url(#linearGradient-22)"/>
        <use xlink:href="#path-21" fill="rgb(255,255,255)" fill-opacity="1"/>
      </g>
      <g opacity="1">
        <use xlink:href="#path-23" fill="rgb(205,26,200)" fill-opacity="1"/>
      </g>
      <g opacity="1">
        <use xlink:href="#path-24" fill="url(#linearGradient-25)"/>
        <use xlink:href="#path-24" fill="rgb(255,255,255)" fill-opacity="1"/>
      </g>
      <g opacity="1">
        <use xlink:href="#path-26" fill="url(#linearGradient-27)"/>
        <use xlink:href="#path-26" fill="rgb(204,26,206)" fill-opacity="1"/>
      </g>
      <g opacity="1">
        <use xlink:href="#path-28" fill="url(#linearGradient-29)"/>
        <use xlink:href="#path-28" fill="rgb(204,26,211)" fill-opacity="1"/>
      </g>
      <g opacity="1">
        <use xlink:href="#path-30" fill="url(#linearGradient-31)"/>
      </g>
    </g>
    <g opacity="1">
      <g opacity="1">
        <use xlink:href="#path-33" fill="rgb(157,193,111)" fill-opacity="1"/>
      </g>
      <g opacity="1">
        <use xlink:href="#path-34" fill="rgb(157,193,111)" fill-opacity="1"/>
      </g>
      <g opacity="1">
        <use xlink:href="#path-35" fill="rgb(157,193,111)" fill-opacity="1"/>
      </g>
      <g opacity="1">
        <use xlink:href="#path-36" fill="rgb(157,193,111)" fill-opacity="1"/>
      </g>
      <g opacity="1">
        <use xlink:href="#path-37" fill="rgb(157,193,111)" fill-opacity="1"/>
      </g>
      <g opacity="1">
        <use xlink:href="#path-38" fill="rgb(157,193,111)" fill-opacity="1"/>
      </g>
      <g opacity="1">
        <use xlink:href="#path-39" fill="rgb(157,193,111)" fill-opacity="1"/>
      </g>
      <g opacity="1">
        <use xlink:href="#path-40" fill="rgb(157,193,111)" fill-opacity="1"/>
      </g>
    </g>
    <g opacity="1">
      <g opacity="1">
        <g opacity="1">
          <use xlink:href="#path-41" fill="rgb(255,255,255)" fill-opacity="1"/>
        </g>
      </g>
      <g opacity="1">
        <g opacity="1">
          <use xlink:href="#path-42" fill="rgb(255,255,255)" fill-opacity="1"/>
        </g>
      </g>
      <g opacity="1">
        <g opacity="1">
          <use xlink:href="#path-43" fill="rgb(255,255,255)" fill-opacity="1"/>
        </g>
      </g>
      <g opacity="1">
        <g opacity="1">
          <use xlink:href="#path-44" fill="rgb(255,255,255)" fill-opacity="1"/>
        </g>
      </g>
      <g opacity="1">
        <g opacity="1">
          <use xlink:href="#path-46" fill="rgb(255,255,255)" fill-opacity="1"/>
        </g>
      </g>
    </g>
    <g opacity="1">
      <g opacity="1">
        <g opacity="1">
          <use xlink:href="#path-47" fill="rgb(255,255,255)" fill-opacity="1"/>
        </g>
      </g>
      <g opacity="1">
        <g opacity="1">
          <use xlink:href="#path-48" fill="rgb(255,255,255)" fill-opacity="1"/>
        </g>
      </g>
      <g opacity="1">
        <g opacity="1">
          <use xlink:href="#path-49" fill="rgb(255,255,255)" fill-opacity="1"/>
        </g>
      </g>
      <g opacity="1">
        <g opacity="1">
          <use xlink:href="#path-50" fill="rgb(255,255,255)" fill-opacity="1"/>
        </g>
      </g>
      <g opacity="1">
        <g opacity="1">
          <use xlink:href="#path-52" fill="rgb(255,255,255)" fill-opacity="1"/>
        </g>
      </g>
    </g>
    <g opacity="1">
      <g opacity="1">
        <g opacity="1">
          <use xlink:href="#path-53" fill="rgb(255,255,255)" fill-opacity="1"/>
        </g>
      </g>
      <g opacity="1">
        <g opacity="1">
          <use xlink:href="#path-54" fill="rgb(255,255,255)" fill-opacity="1"/>
        </g>
      </g>
      <g opacity="1">
        <g opacity="1">
          <use xlink:href="#path-55" fill="rgb(255,255,255)" fill-opacity="1"/>
        </g>
      </g>
      <g opacity="1">
        <g opacity="1">
          <use xlink:href="#path-56" fill="rgb(255,255,255)" fill-opacity="1"/>
        </g>
      </g>
      <g opacity="1">
        <g opacity="1">
          <use xlink:href="#path-58" fill="rgb(255,255,255)" fill-opacity="1"/>
        </g>
      </g>
    </g>
    <g opacity="1">
      <g opacity="1">
        <g opacity="1">
          <use xlink:href="#path-59" fill="rgb(255,255,255)" fill-opacity="1"/>
        </g>
      </g>
      <g opacity="1">
        <g opacity="1">
          <use xlink:href="#path-60" fill="rgb(255,255,255)" fill-opacity="1"/>
        </g>
      </g>
      <g opacity="1">
        <g opacity="1">
          <use xlink:href="#path-61" fill="rgb(255,255,255)" fill-opacity="1"/>
        </g>
      </g>
      <g opacity="1">
        <g opacity="1">
          <use xlink:href="#path-62" fill="rgb(255,255,255)" fill-opacity="1"/>
        </g>
      </g>
      <g opacity="1">
        <g opacity="1">
          <use xlink:href="#path-64" fill="rgb(255,255,255)" fill-opacity="1"/>
        </g>
      </g>
    </g>
    <g opacity="1">
      <use xlink:href="#path-65" fill="url(#linearGradient-66)"/>
    </g>
  </g>
</svg>
